<svg width="196" height="127" viewBox="0 0 196 127" fill="none"
    xmlns="http://www.w3.org/2000/svg">
    <style>
        path {
            fill: black;
        }

        @media (prefers-color-scheme: dark) {
            path {
                fill: white;
            }
        }
    </style>
    <mask id="path-1-outside-1_16_146" maskUnits="userSpaceOnUse" x="-0.435547" y="0.264648" width="196" height="127" fill="black">
        <rect fill="white" x="-0.435547" y="0.264648" width="196" height="127"/>
        <path d="M4.56445 124L49.5688 3.26465H64.3477L109.436 124H92.3188L84.2197 100.454H30.1978L22.0151 124H4.56445ZM34.5396 88.0967H79.9614L57.4175 22.5522L34.5396 88.0967Z"/>
        <path d="M94.083 124V3.26465H147.938C154.729 3.26465 160.629 4.37793 165.639 6.60449C170.705 8.77539 174.629 12.4771 177.412 17.7095C180.251 22.8862 181.67 29.9834 181.67 39.001C181.67 48.7422 180.084 55.9785 176.911 60.71C173.794 65.3857 169.703 68.7812 164.637 70.8965L190.271 124H172.987L149.023 73.9023H110.949V124H94.083ZM110.949 61.2109H146.519C151.417 61.2109 155.174 60.2925 157.791 58.4556C160.407 56.6187 162.216 54.1416 163.218 51.0244C164.275 47.8516 164.804 44.3447 164.804 40.5039C164.804 36.6074 164.47 32.7944 163.802 29.0649C163.19 25.3354 161.743 22.2461 159.46 19.7969C157.178 17.292 153.504 16.0396 148.439 16.0396H110.949V61.2109Z"/>
    </mask>
    <path d="M4.56445 124L49.5688 3.26465H64.3477L109.436 124H92.3188L84.2197 100.454H30.1978L22.0151 124H4.56445ZM34.5396 88.0967H79.9614L57.4175 22.5522L34.5396 88.0967Z" stroke="white" stroke-width="6" mask="url(#path-1-outside-1_16_146)"/>
    <path d="M94.083 124V3.26465H147.938C154.729 3.26465 160.629 4.37793 165.639 6.60449C170.705 8.77539 174.629 12.4771 177.412 17.7095C180.251 22.8862 181.67 29.9834 181.67 39.001C181.67 48.7422 180.084 55.9785 176.911 60.71C173.794 65.3857 169.703 68.7812 164.637 70.8965L190.271 124H172.987L149.023 73.9023H110.949V124H94.083ZM110.949 61.2109H146.519C151.417 61.2109 155.174 60.2925 157.791 58.4556C160.407 56.6187 162.216 54.1416 163.218 51.0244C164.275 47.8516 164.804 44.3447 164.804 40.5039C164.804 36.6074 164.47 32.7944 163.802 29.0649C163.19 25.3354 161.743 22.2461 159.46 19.7969C157.178 17.292 153.504 16.0396 148.439 16.0396H110.949V61.2109Z" stroke="white" stroke-width="6" mask="url(#path-1-outside-1_16_146)"/>
</svg>
