<svg width="141" height="159" viewBox="0 0 141 159" fill="none" xmlns="http://www.w3.org/2000/svg">
<g clip-path="url(#clip0_101_37)">
<path d="M140.373 47.0683C140.372 44.4211 139.807 42.0819 138.665 40.0749C137.543 38.1002 135.862 36.4456 133.608 35.1373C115.002 24.3847 96.3783 13.665 77.7783 2.90138C72.7638 -0.000112853 67.9019 0.106213 62.9247 3.04936C55.5189 7.42626 18.4408 28.7172 7.39204 35.1313C2.84184 37.7719 0.627709 41.8123 0.626616 47.0634C0.619507 68.6875 0.626616 90.3117 0.619507 111.936C0.619507 114.525 1.16142 116.819 2.25345 118.796C3.3761 120.83 5.08003 122.53 7.38603 123.868C18.4354 130.282 55.5183 151.571 62.9225 155.95C67.9019 158.895 72.7638 159 77.7799 156.098C96.3805 145.334 115.006 134.614 133.614 123.861C135.92 122.524 137.624 120.823 138.747 118.791C139.837 116.813 140.38 114.519 140.38 111.93C140.38 111.93 140.38 68.693 140.373 47.0683Z" fill="#9C84C0"/>
<path d="M70.7139 79.2889L2.25354 118.796C3.37619 120.83 5.08012 122.53 7.38612 123.868C18.4354 130.282 55.5184 151.571 62.9226 155.95C67.902 158.895 72.7639 159 77.78 156.098C96.3806 145.334 115.006 134.614 133.615 123.861C135.92 122.524 137.624 120.823 138.747 118.791L70.7139 79.2889Z" fill="#4E3B6B"/>
<path d="M140.373 47.0683C140.372 44.4212 139.807 42.082 138.665 40.075L70.7139 79.2895L138.747 118.791C139.837 116.813 140.379 114.52 140.38 111.93C140.38 111.93 140.38 68.6931 140.373 47.0683Z" fill="#73608F"/>
<path d="M111.021 64.5201V71.9049H118.389V64.5201H122.073V71.9049H129.441V75.5972H122.073V82.9814H129.441V86.6737H122.073V94.0585H118.389V86.6737H111.021V94.0585H107.337V86.6737H99.9695V82.9814H107.337V75.5972H99.9695V71.9049H107.337V64.5201H111.021ZM118.389 75.5967H111.021V82.9814H118.389V75.5967Z" fill="#EFEFEF"/>
<path d="M70.8642 27.4332C90.0821 27.4332 106.861 37.8937 115.848 53.4425L115.76 53.2928L93.1488 66.3413C88.6942 58.7818 80.5278 53.6798 71.1589 53.5745L70.8636 53.5729C56.5776 53.5729 44.9957 65.1811 44.9957 79.4994C44.991 84.0124 46.1673 88.4477 48.4074 92.3627C52.8662 100.164 61.2487 105.427 70.8642 105.427C80.5393 105.427 88.9693 100.098 93.4052 92.2125L93.2975 92.4016L115.875 105.51C106.986 120.928 90.437 131.356 71.4427 131.564L70.8642 131.567C51.5856 131.567 34.7595 121.042 25.7947 105.411C21.4184 97.7798 18.9144 88.9334 18.9144 79.4994C18.9144 50.7443 42.1724 27.4326 70.8636 27.4326L70.8642 27.4332Z" fill="#EFEFEF"/>
</g>
<defs>
<clipPath id="clip0_101_37">
<rect width="141" height="159" fill="white"/>
</clipPath>
</defs>
</svg>
