<svg width="170" height="168" viewBox="0 0 170 168" fill="none" xmlns="http://www.w3.org/2000/svg">
<g filter="url(#filter0_d_16_91)">
<path fill-rule="evenodd" clip-rule="evenodd" d="M86.935 5.00617L88.855 5.03083L90.7675 5.06167L92.665 5.111L94.5475 5.17267L96.415 5.24667L98.2675 5.33917L100.113 5.43783L101.927 5.555L103.735 5.67833L105.528 5.82017L107.297 5.96817L109.045 6.13467L110.778 6.30733L112.495 6.4985L114.182 6.69583L115.855 6.9055L117.505 7.1275L119.133 7.36183L120.737 7.6085L122.32 7.86133L123.88 8.1265L125.417 8.404L126.925 8.68767L128.41 8.98367L129.865 9.292L131.298 9.6065L132.7 9.93333L134.072 10.2663L135.422 10.6117L136.735 10.9632L138.025 11.327L139.285 11.697L140.507 12.0732L141.708 12.4617L142.87 12.8563L143.995 13.2633L144.55 13.4668L145.098 13.6703L145.63 13.88L146.155 14.0897L146.672 14.3055L147.183 14.5213L147.685 14.7372L148.18 14.953L148.66 15.175L149.14 15.397L149.605 15.619L150.055 15.841L150.505 16.0692L150.94 16.2973L151.375 16.5255L151.788 16.7598L152.2 16.9942L152.598 17.2285L152.988 17.4628L153.37 17.7033L153.745 17.9438L154.105 18.1843L154.457 18.4248L154.795 18.6715L155.125 18.9182L155.447 19.1648L155.755 19.4115L156.055 19.6643L156.348 19.9172L156.625 20.17L156.895 20.4228L157.15 20.6757L157.397 20.9347L157.637 21.1937L157.863 21.4527L158.08 21.7117L158.282 21.9707L158.478 22.2358L158.657 22.501L158.83 22.7662L158.987 23.0313L159.138 23.2965L159.272 23.5678L159.4 23.833L159.512 24.1043L159.61 24.3757L159.7 24.647L159.783 24.9245L159.85 25.1958L159.902 25.4733L159.948 25.7508L159.977 26.0283L159.993 26.3058L160 26.5833V131.417L159.993 131.694L159.977 131.972L159.948 132.249L159.902 132.527L159.85 132.804L159.783 133.075L159.7 133.353L159.61 133.624L159.512 133.896L159.4 134.167L159.272 134.432L159.138 134.704L158.987 134.969L158.83 135.234L158.657 135.499L158.478 135.764L158.282 136.029L158.08 136.288L157.863 136.547L157.637 136.806L157.397 137.065L157.15 137.324L156.895 137.577L156.625 137.83L156.348 138.083L156.055 138.336L155.755 138.588L155.447 138.835L155.125 139.082L154.795 139.329L154.457 139.575L154.105 139.816L153.745 140.056L153.37 140.297L152.988 140.537L152.598 140.771L152.2 141.006L151.788 141.24L151.375 141.474L150.94 141.703L150.505 141.931L150.055 142.159L149.605 142.381L149.14 142.603L148.66 142.825L148.18 143.047L147.685 143.263L147.183 143.479L146.672 143.694L146.155 143.91L145.63 144.12L145.098 144.33L144.55 144.533L143.995 144.737L142.87 145.144L141.708 145.538L140.507 145.927L139.285 146.303L138.025 146.673L136.735 147.037L135.422 147.388L134.072 147.734L132.7 148.067L131.298 148.393L129.865 148.708L128.41 149.016L126.925 149.312L125.417 149.596L123.88 149.873L122.32 150.139L120.737 150.391L119.133 150.638L117.505 150.873L115.855 151.094L114.182 151.304L112.495 151.501L110.778 151.693L109.045 151.865L107.297 152.032L105.528 152.18L103.735 152.322L101.927 152.445L100.113 152.562L98.2675 152.661L96.415 152.753L94.5475 152.827L92.665 152.889L90.7675 152.938L88.855 152.969L86.935 152.994L85 153L83.065 152.994L81.145 152.969L79.2325 152.938L77.335 152.889L75.4525 152.827L73.585 152.753L71.7325 152.661L69.895 152.562L68.0725 152.445L66.265 152.322L64.48 152.18L62.71 152.032L60.955 151.865L59.2225 151.693L57.5125 151.501L55.8175 151.304L54.145 151.094L52.495 150.873L50.8675 150.638L49.2625 150.391L47.68 150.139L46.12 149.873L44.59 149.596L43.0825 149.312L41.5975 149.016L40.135 148.708L38.71 148.393L37.3075 148.067L35.9275 147.734L34.585 147.388L33.265 147.037L31.975 146.673L30.7225 146.303L29.4925 145.927L28.3 145.538L27.1375 145.144L26.005 144.737L25.45 144.533L24.91 144.33L24.37 144.12L23.845 143.91L23.3275 143.694L22.8175 143.479L22.315 143.263L21.82 143.047L21.34 142.825L20.8675 142.603L20.4025 142.381L19.945 142.159L19.495 141.931L19.06 141.703L18.6325 141.474L18.2125 141.24L17.8 141.006L17.4025 140.771L17.0125 140.537L16.63 140.297L16.2625 140.056L15.895 139.816L15.55 139.575L15.205 139.329L14.875 139.082L14.5525 138.835L14.245 138.588L13.945 138.336L13.6525 138.083L13.375 137.83L13.105 137.577L12.85 137.324L12.6025 137.065L12.3625 136.806L12.1375 136.547L11.92 136.288L11.7175 136.029L11.5225 135.764L11.3425 135.499L11.17 135.234L11.0125 134.969L10.8625 134.704L10.7275 134.432L10.6 134.167L10.4875 133.896L10.39 133.624L10.3 133.353L10.2175 133.075L10.15 132.804L10.0975 132.527L10.0525 132.249L10.0225 131.972L10.0075 131.694L10 131.417V26.5833L10.0075 26.3058L10.0225 26.0283L10.0525 25.7508L10.0975 25.4733L10.15 25.1958L10.2175 24.9245L10.3 24.647L10.39 24.3757L10.4875 24.1043L10.6 23.833L10.7275 23.5678L10.8625 23.2965L11.0125 23.0313L11.17 22.7662L11.3425 22.501L11.5225 22.2358L11.7175 21.9707L11.92 21.7117L12.1375 21.4527L12.3625 21.1937L12.6025 20.9347L12.85 20.6757L13.105 20.4228L13.375 20.17L13.6525 19.9172L13.945 19.6643L14.245 19.4115L14.5525 19.1648L14.875 18.9182L15.205 18.6715L15.55 18.4248L15.895 18.1843L16.2625 17.9438L16.63 17.7033L17.0125 17.4628L17.4025 17.2285L17.8 16.9942L18.2125 16.7598L18.6325 16.5255L19.06 16.2973L19.495 16.0692L19.945 15.841L20.4025 15.619L20.8675 15.397L21.34 15.175L21.82 14.953L22.315 14.7372L22.8175 14.5213L23.3275 14.3055L23.845 14.0897L24.37 13.88L24.91 13.6703L25.45 13.4668L26.005 13.2633L27.1375 12.8563L28.3 12.4617L29.4925 12.0732L30.7225 11.697L31.975 11.327L33.265 10.9632L34.585 10.6117L35.9275 10.2663L37.3075 9.93333L38.71 9.6065L40.135 9.292L41.5975 8.98367L43.0825 8.68767L44.59 8.404L46.12 8.1265L47.68 7.86133L49.2625 7.6085L50.8675 7.36183L52.495 7.1275L54.145 6.9055L55.8175 6.69583L57.5125 6.4985L59.2225 6.30733L60.955 6.13467L62.71 5.96817L64.48 5.82017L66.265 5.67833L68.0725 5.555L69.895 5.43783L71.7325 5.33917L73.585 5.24667L75.4525 5.17267L77.335 5.111L79.2325 5.06167L81.145 5.03083L83.065 5.00617L85 5L86.935 5.00617ZM17.5 131.417V131.478L17.5075 131.608L17.53 131.737L17.56 131.873L17.5975 132.002L17.6425 132.138L17.695 132.274L17.7625 132.416L17.8375 132.551L17.92 132.693L18.01 132.835L18.1075 132.977L18.22 133.119L18.34 133.267L18.4675 133.408L18.6025 133.556L18.745 133.704L18.9025 133.852L19.0675 134.007L19.24 134.155L19.42 134.309L19.81 134.611L20.23 134.919L20.6875 135.234L21.1825 135.548L21.7075 135.863L22.27 136.177L22.8625 136.498L23.4925 136.819L24.1525 137.139L24.8425 137.46L25.57 137.781L26.335 138.095L27.1225 138.416L27.9475 138.736L28.8025 139.051L29.695 139.365L30.6175 139.68L31.57 139.988L32.5525 140.297L33.565 140.605L34.6075 140.901L35.6875 141.203L36.79 141.493L37.93 141.783L39.0925 142.073L40.2925 142.35L41.515 142.628L42.7675 142.893L44.05 143.158L45.37 143.411L46.705 143.664L48.0775 143.904L49.48 144.145L50.905 144.373L52.36 144.589L53.8375 144.804L55.3525 145.008L56.8825 145.199L58.45 145.384L60.04 145.563L61.66 145.729L63.3025 145.884L64.9675 146.032L66.6625 146.161L68.3875 146.284L70.135 146.396L71.905 146.494L73.705 146.587L75.5275 146.661L77.3725 146.722L79.24 146.772L81.1375 146.803L83.0575 146.827L85 146.833L86.95 146.827L88.8775 146.803L90.7825 146.772L92.6575 146.722L94.51 146.655L96.34 146.58L98.1475 146.494L99.925 146.396L101.672 146.284L103.405 146.155L105.1 146.025L106.78 145.877L108.43 145.717L110.05 145.551L111.64 145.378L113.215 145.187L114.753 144.996L116.268 144.786L117.753 144.576L119.208 144.354L120.64 144.126L122.042 143.886L123.415 143.639L124.758 143.392L126.07 143.133L127.36 142.868L128.62 142.597L129.843 142.319L131.042 142.036L132.205 141.752L133.345 141.462L134.455 141.166L135.527 140.864L136.57 140.562L137.59 140.253L138.572 139.945L139.517 139.637L140.44 139.322L141.325 139.002L142.18 138.687L143.005 138.367L143.8 138.046L144.557 137.725L145.278 137.405L145.967 137.084L146.627 136.757L147.25 136.442L147.842 136.122L148.397 135.801L148.923 135.487L149.41 135.172L149.86 134.858L150.28 134.549L150.662 134.241L150.835 134.093L151.008 133.939L151.165 133.791L151.315 133.643L151.458 133.495L151.592 133.347L151.72 133.199L151.832 133.057L151.937 132.909L152.035 132.767L152.125 132.625L152.2 132.483L152.275 132.348L152.335 132.212L152.38 132.076L152.425 131.941L152.455 131.805L152.485 131.676L152.493 131.546L152.5 131.417V105.967L151.923 106.306L151.323 106.633L150.7 106.966L150.062 107.293L149.41 107.613L148.735 107.934L148.038 108.248L147.325 108.557L146.597 108.865L145.848 109.167L145.082 109.469L144.295 109.765L143.5 110.055L142.682 110.345L141.85 110.629L140.995 110.906L140.132 111.184L139.247 111.455L138.348 111.72L137.432 111.979L136.503 112.238L135.557 112.491L134.598 112.738L133.622 112.984L132.632 113.219L131.627 113.453L130.615 113.681L129.58 113.909L128.538 114.125L127.473 114.341L126.4 114.551L125.32 114.754L124.218 114.952L123.107 115.143L121.982 115.328L120.85 115.513L119.703 115.692L118.547 115.858L117.377 116.025L116.193 116.185L115 116.339L113.792 116.487L112.578 116.629L111.355 116.765L110.117 116.894L108.872 117.018L107.62 117.135L106.353 117.246L105.085 117.35L103.802 117.449L102.505 117.542L101.208 117.628L99.895 117.708L98.5825 117.782L97.255 117.85L95.92 117.912L94.5775 117.961L93.235 118.01L91.8775 118.047L90.5125 118.078L89.1475 118.103L87.7675 118.121L86.3875 118.134H83.6125L82.2325 118.121L80.8525 118.103L79.4875 118.078L78.1225 118.047L76.765 118.01L75.4225 117.961L74.08 117.912L72.745 117.85L71.425 117.782L70.105 117.708L68.7925 117.628L67.495 117.542L66.205 117.449L64.9225 117.35L63.6475 117.246L62.38 117.135L61.1275 117.018L59.8825 116.894L58.645 116.765L57.4225 116.629L56.2075 116.487L55 116.339L53.8075 116.185L52.63 116.025L51.46 115.858L50.2975 115.692L49.15 115.513L48.0175 115.328L46.8925 115.143L45.7825 114.952L44.6875 114.754L43.6 114.551L42.5275 114.341L41.47 114.125L40.42 113.909L39.3925 113.681L38.3725 113.453L37.3675 113.219L36.3775 112.984L35.4025 112.738L34.4425 112.491L33.4975 112.238L32.5675 111.979L31.6525 111.72L30.7525 111.449L29.875 111.184L29.005 110.906L28.1575 110.629L27.3175 110.345L26.5 110.055L25.705 109.765L24.9175 109.469L24.1525 109.167L23.4025 108.865L22.675 108.557L21.9625 108.248L21.265 107.928L20.59 107.613L19.9375 107.293L19.3 106.966L18.6775 106.633L18.0775 106.3L17.5 105.967V131.417ZM17.5 96.5503V96.6182L17.5075 96.7477L17.53 96.8772L17.56 97.0067L17.5975 97.1423L17.6425 97.278L17.695 97.4137L17.7625 97.5493L17.8375 97.685L17.92 97.8268L18.01 97.9687L18.1075 98.1105L18.22 98.2585L18.34 98.4003L18.4675 98.5483L18.6025 98.6963L18.745 98.8443L18.9025 98.9923L19.0675 99.1403L19.24 99.2945L19.42 99.4425L19.81 99.7508L20.23 100.059L20.6875 100.367L21.1825 100.682L21.7075 100.996L22.27 101.317L22.8625 101.632L23.4925 101.952L24.1525 102.273L24.8425 102.594L25.57 102.914L26.335 103.235L27.1225 103.556L27.9475 103.87L28.8025 104.185L29.695 104.505L30.6175 104.814L31.57 105.128L32.5525 105.437L33.565 105.739L34.6075 106.041L35.6875 106.337L36.79 106.633L37.93 106.923L39.0925 107.206L40.2925 107.484L41.515 107.761L42.7675 108.033L44.05 108.292L45.37 108.551L46.705 108.797L48.0775 109.044L49.48 109.278L50.905 109.507L52.36 109.728L53.8375 109.938L55.3525 110.142L56.8825 110.339L58.45 110.524L60.04 110.697L61.66 110.863L63.3025 111.017L64.9675 111.165L66.6625 111.301L68.3875 111.424L70.135 111.535L71.905 111.634L73.705 111.72L75.5275 111.794L77.3725 111.856L79.24 111.905L81.1375 111.942L83.0575 111.961L85 111.967L86.95 111.961L88.8775 111.942L90.7825 111.905L92.6575 111.856L94.51 111.794L96.34 111.72L98.1475 111.628L99.925 111.529L101.672 111.418L103.405 111.295L105.1 111.159L106.78 111.011L108.43 110.857L110.05 110.69L111.64 110.512L113.215 110.327L114.753 110.129L116.268 109.926L117.753 109.71L119.208 109.488L120.64 109.26L122.042 109.019L123.415 108.779L124.758 108.526L126.07 108.267L127.36 108.002L128.62 107.73L129.843 107.453L131.042 107.175L132.205 106.886L133.345 106.596L134.455 106.3L135.527 106.004L136.57 105.696L137.59 105.393L138.572 105.085L139.517 104.771L140.44 104.456L141.325 104.141L142.18 103.821L143.005 103.5L143.8 103.179L144.557 102.859L145.278 102.538L145.967 102.217L146.627 101.897L147.25 101.576L147.842 101.255L148.397 100.941L148.923 100.62L149.41 100.306L149.86 99.9975L150.28 99.683L150.662 99.3808L150.835 99.2267L151.008 99.0787L151.165 98.9245L151.315 98.7765L151.458 98.6285L151.592 98.4805L151.72 98.3325L151.832 98.1907L151.937 98.0488L152.035 97.9008L152.125 97.7652L152.2 97.6233L152.275 97.4815L152.335 97.3458L152.38 97.2102L152.425 97.0745L152.455 96.945L152.485 96.8093L152.493 96.6798L152.5 96.5503V71.0265L151.923 71.3595L151.323 71.6925L150.7 72.0255L150.062 72.3462L149.41 72.673L148.735 72.9875L148.038 73.302L147.325 73.6165L146.597 73.9248L145.848 74.227L145.082 74.5292L144.295 74.8252L143.5 75.115L142.682 75.4048L141.85 75.6885L140.995 75.966L140.132 76.2373L139.247 76.5087L138.348 76.78L137.432 77.039L136.503 77.298L135.557 77.5508L134.598 77.7975L133.622 78.038L132.632 78.2785L131.627 78.5128L130.615 78.741L129.58 78.963L128.538 79.185L127.473 79.4008L126.4 79.6043L125.32 79.8078L124.218 80.0113L123.107 80.2025L121.982 80.3875L120.85 80.5725L119.703 80.7452L118.547 80.9178L117.377 81.0843L116.193 81.2447L115 81.3988L113.792 81.5468L112.578 81.6887L111.355 81.8243L110.117 81.9538L108.872 82.0772L107.62 82.1943L106.353 82.3053L105.085 82.4102L103.802 82.5088L102.505 82.6013L101.208 82.6877L99.895 82.7678L98.5825 82.8418L97.255 82.9097L95.92 82.9652L94.5775 83.0207L93.235 83.0638L91.8775 83.107L90.5125 83.1378L89.1475 83.1625L87.7675 83.181L86.3875 83.1933H83.6125L82.2325 83.181L80.8525 83.1625L79.4875 83.1378L78.1225 83.107L76.765 83.0638L75.4225 83.0207L74.08 82.9652L72.745 82.9097L71.425 82.8418L70.105 82.7678L68.7925 82.6877L67.495 82.6013L66.205 82.5088L64.9225 82.4102L63.6475 82.3053L62.38 82.1943L61.1275 82.0772L59.8825 81.9538L58.645 81.8243L57.4225 81.6887L56.2075 81.5468L55 81.3988L53.8075 81.2447L52.63 81.0843L51.46 80.9178L50.2975 80.7452L49.15 80.5725L48.0175 80.3875L46.8925 80.2025L45.7825 80.0113L44.6875 79.8078L43.6 79.6043L42.5275 79.4008L41.47 79.185L40.42 78.963L39.3925 78.741L38.3725 78.5128L37.3675 78.2785L36.3775 78.038L35.4025 77.7975L34.4425 77.5508L33.4975 77.298L32.5675 77.039L31.6525 76.7738L30.7525 76.5087L29.875 76.2373L29.005 75.966L28.1575 75.6823L27.3175 75.3987L26.5 75.115L25.705 74.8252L24.9175 74.5292L24.1525 74.227L23.4025 73.9248L22.675 73.6165L21.9625 73.302L21.265 72.9875L20.59 72.673L19.9375 72.3462L19.3 72.0255L18.6775 71.6925L18.0775 71.3595L17.5 71.0265V96.5503ZM17.5 61.61V61.6778L17.5075 61.8012L17.53 61.9368L17.56 62.0663L17.5975 62.202L17.6425 62.3315L17.695 62.4672L17.7625 62.609L17.8375 62.7447L17.92 62.8865L18.01 63.0283L18.1075 63.1702L18.22 63.312L18.34 63.46L18.4675 63.608L18.6025 63.7498L18.745 63.8978L18.9025 64.052L19.0675 64.2L19.24 64.348L19.42 64.5022L19.81 64.8105L20.23 65.1188L20.6875 65.4272L21.1825 65.7417L21.7075 66.0562L22.27 66.3768L22.8625 66.6913L23.4925 67.012L24.1525 67.3327L24.8425 67.6533L25.57 67.974L26.335 68.2947L27.1225 68.6092L27.9475 68.9298L28.8025 69.2443L29.695 69.5588L30.6175 69.8733L31.57 70.1817L32.5525 70.49L33.565 70.7983L34.6075 71.1005L35.6875 71.3965L36.79 71.6925L37.93 71.9823L39.0925 72.266L40.2925 72.5435L41.515 72.821L42.7675 73.0862L44.05 73.3513L45.37 73.6103L46.705 73.857L48.0775 74.1037L49.48 74.338L50.905 74.5662L52.36 74.7882L53.8375 74.9978L55.3525 75.2013L56.8825 75.3987L58.45 75.5837L60.04 75.7563L61.66 75.9228L63.3025 76.077L64.9675 76.225L66.6625 76.3545L68.3875 76.4778L70.135 76.5888L71.905 76.6937L73.705 76.78L75.5275 76.854L77.3725 76.9157L79.24 76.965L81.1375 77.002L83.0575 77.0205L85 77.0267L86.95 77.0205L88.8775 77.002L90.7825 76.965L92.6575 76.9157L94.51 76.854L96.34 76.7738L98.1475 76.6875L99.925 76.5888L101.672 76.4778L103.405 76.3545L105.1 76.2188L106.78 76.0708L108.43 75.9167L110.05 75.7502L111.64 75.5713L113.215 75.3863L114.753 75.189L116.268 74.9855L117.753 74.7697L119.208 74.5477L120.64 74.3195L122.042 74.079L123.415 73.8385L124.758 73.5857L126.07 73.3267L127.36 73.0615L128.62 72.7902L129.843 72.5127L131.042 72.2352L132.205 71.9453L133.345 71.6555L134.455 71.3595L135.527 71.0573L136.57 70.7552L137.59 70.453L138.572 70.1385L139.517 69.8302L140.44 69.5157L141.325 69.195L142.18 68.8805L143.005 68.5598L143.8 68.2392L144.557 67.9185L145.278 67.5978L145.967 67.2772L146.627 66.9565L147.25 66.6358L147.842 66.3152L148.397 65.9945L148.923 65.68L149.41 65.3655L149.86 65.051L150.28 64.7427L150.662 64.4405L150.835 64.2863L151.008 64.1322L151.165 63.9842L151.315 63.8362L151.458 63.6882L151.592 63.5402L151.72 63.3922L151.832 63.2503L151.937 63.1023L152.035 62.9605L152.125 62.8187L152.2 62.683L152.275 62.5412L152.335 62.4055L152.38 62.2698L152.425 62.1342L152.455 61.9985L152.485 61.869L152.493 61.7395L152.5 61.61V35.9998L151.923 36.3328L151.323 36.6658L150.7 36.9927L150.062 37.3195L149.41 37.6463L148.735 37.9608L148.038 38.2753L147.325 38.5898L146.597 38.8982L145.848 39.2003L145.082 39.4963L144.295 39.7923L143.5 40.0883L142.682 40.372L141.85 40.6557L140.995 40.9393L140.132 41.2107L139.247 41.482L138.348 41.7472L137.432 42.0123L136.503 42.2713L135.557 42.5242L134.598 42.7708L133.622 43.0113L132.632 43.2518L131.627 43.4862L130.615 43.7143L129.58 43.9363L128.538 44.1583L127.473 44.368L126.4 44.5777L125.32 44.7812L124.218 44.9785L123.107 45.1758L121.982 45.3608L120.85 45.5458L119.703 45.7185L118.547 45.8912L117.377 46.0577L116.193 46.218L115 46.366L113.792 46.514L112.578 46.6558L111.355 46.7977L110.117 46.9272L108.872 47.0505L107.62 47.1677L106.353 47.2787L105.085 47.3835L103.802 47.4822L102.505 47.5747L101.208 47.661L99.895 47.7412L98.5825 47.8152L97.255 47.8768L95.92 47.9385L94.5775 47.994L93.235 48.0372L91.8775 48.0742L90.5125 48.1112L89.1475 48.1358L87.7675 48.1543L86.3875 48.1605L85 48.1667L83.6125 48.1605L82.2325 48.1543L80.8525 48.1358L79.4875 48.1112L78.1225 48.0742L76.765 48.0372L75.4225 47.994L74.08 47.9385L72.745 47.8768L71.425 47.8152L70.105 47.7412L68.7925 47.661L67.495 47.5747L66.205 47.4822L64.9225 47.3835L63.6475 47.2787L62.38 47.1677L61.1275 47.0505L59.8825 46.9272L58.645 46.7977L57.4225 46.6558L56.2075 46.514L55 46.366L53.8075 46.218L52.63 46.0577L51.46 45.8912L50.2975 45.7185L49.15 45.5458L48.0175 45.3608L46.8925 45.1758L45.7825 44.9785L44.6875 44.7812L43.6 44.5777L42.5275 44.368L41.47 44.1583L40.42 43.9363L39.3925 43.7143L38.3725 43.4862L37.3675 43.2518L36.3775 43.0113L35.4025 42.7708L34.4425 42.518L33.4975 42.2652L32.5675 42.0123L31.6525 41.7472L30.7525 41.482L29.875 41.2107L29.005 40.9393L28.1575 40.6557L27.3175 40.372L26.5 40.0883L25.705 39.7923L24.9175 39.4963L24.1525 39.2003L23.4025 38.892L22.675 38.5898L21.9625 38.2753L21.265 37.9608L20.59 37.6402L19.9375 37.3195L19.3 36.9927L18.6775 36.6658L18.0775 36.3328L17.5 35.9998V61.61ZM83.05 11.1728L81.1225 11.1975L79.2175 11.2283L77.3425 11.2777L75.49 11.3455L73.66 11.4195L71.8525 11.5058L70.075 11.6045L68.3275 11.7155L66.595 11.845L64.9 11.9807L63.22 12.1225L61.57 12.2828L59.95 12.4493L58.36 12.622L56.785 12.8132L55.2475 13.0105L53.7325 13.214L52.2475 13.4237L50.7925 13.6457L49.36 13.88L47.9575 14.1143L46.585 14.361L45.2425 14.6138L43.93 14.8728L42.64 15.138L41.38 15.4032L40.1575 15.6807L38.9575 15.9643L37.795 16.248L36.655 16.544L35.545 16.84L34.4725 17.136L33.43 17.4382L32.41 17.7465L31.4275 18.0548L30.4825 18.3693L29.56 18.6838L28.675 18.9983L27.82 19.319L26.995 19.6397L26.2 19.9603L25.4425 20.281L24.7225 20.6017L24.0325 20.9223L23.3725 21.243L22.75 21.5637L22.1575 21.8843L21.6025 22.1988L21.0775 22.5195L20.59 22.834L20.14 23.1423L19.72 23.4507L19.3375 23.759L19.165 23.9132L18.9925 24.0612L18.835 24.2092L18.685 24.3633L18.5425 24.5113L18.4075 24.6593L18.28 24.8012L18.1675 24.9492L18.0625 25.091L17.965 25.2328L17.875 25.3747L17.8 25.5165L17.725 25.6522L17.665 25.7878L17.62 25.9297L17.575 26.0592L17.545 26.1948L17.515 26.3243L17.5075 26.4538L17.5 26.5833L17.5075 26.7128L17.515 26.8423L17.545 26.9718L17.575 27.1075L17.62 27.237L17.665 27.3788L17.725 27.5145L17.8 27.6502L17.875 27.792L17.965 27.9338L18.0625 28.0757L18.1675 28.2175L18.28 28.3655L18.4075 28.5073L18.5425 28.6553L18.685 28.8033L18.835 28.9575L18.9925 29.1055L19.165 29.2535L19.3375 29.4077L19.72 29.716L20.14 30.0243L20.59 30.3327L21.0775 30.6472L21.6025 30.9678L22.1575 31.2823L22.75 31.603L23.3725 31.9237L24.0325 32.2443L24.7225 32.565L25.4425 32.8857L26.2 33.2063L26.995 33.527L27.82 33.8477L28.675 34.1683L29.56 34.4828L30.4825 34.7973L31.4275 35.1118L32.41 35.4202L33.43 35.7285L34.4725 36.0307L35.545 36.3267L36.655 36.6227L37.795 36.9187L38.9575 37.2023L40.1575 37.486L41.38 37.7635L42.64 38.0287L43.93 38.2938L45.2425 38.5528L46.585 38.8057L47.9575 39.0523L49.36 39.2867L50.7925 39.521L52.2475 39.743L53.7325 39.9527L55.2475 40.1562L56.785 40.3535L58.36 40.5447L59.95 40.7173L61.57 40.8838L63.22 41.0442L64.9 41.186L66.595 41.3217L68.3275 41.4512L70.075 41.5622L71.8525 41.6608L73.66 41.7472L75.49 41.8212L77.3425 41.889L79.2175 41.9383L81.1225 41.9692L83.05 41.9938L85 42L86.95 41.9938L88.8775 41.9692L90.7825 41.9383L92.6575 41.889L94.51 41.8212L96.34 41.7472L98.1475 41.6608L99.925 41.5622L101.672 41.4512L103.405 41.3217L105.1 41.186L106.78 41.0442L108.43 40.8838L110.05 40.7173L111.64 40.5447L113.215 40.3535L114.753 40.1562L116.268 39.9527L117.753 39.743L119.208 39.521L120.64 39.2867L122.042 39.0523L123.415 38.8057L124.758 38.5528L126.07 38.2938L127.36 38.0287L128.62 37.7635L129.843 37.486L131.042 37.2023L132.205 36.9187L133.345 36.6227L134.455 36.3267L135.527 36.0307L136.57 35.7285L137.59 35.4202L138.572 35.1118L139.517 34.7973L140.44 34.4828L141.325 34.1683L142.18 33.8477L143.005 33.527L143.8 33.2063L144.557 32.8857L145.278 32.565L145.967 32.2443L146.627 31.9237L147.25 31.603L147.842 31.2823L148.397 30.9678L148.923 30.6472L149.41 30.3327L149.86 30.0243L150.28 29.716L150.662 29.4077L150.835 29.2535L151.008 29.1055L151.165 28.9575L151.315 28.8033L151.458 28.6553L151.592 28.5073L151.72 28.3655L151.832 28.2175L151.937 28.0757L152.035 27.9338L152.125 27.792L152.2 27.6502L152.275 27.5145L152.335 27.3788L152.38 27.237L152.425 27.1075L152.455 26.9718L152.485 26.8423L152.493 26.7128L152.5 26.5833L152.493 26.4538L152.485 26.3243L152.455 26.1948L152.425 26.0592L152.38 25.9297L152.335 25.7878L152.275 25.6522L152.2 25.5165L152.125 25.3747L152.035 25.2328L151.937 25.091L151.832 24.9492L151.72 24.8012L151.592 24.6593L151.458 24.5113L151.315 24.3633L151.165 24.2092L151.008 24.0612L150.835 23.9132L150.662 23.759L150.28 23.4507L149.86 23.1423L149.41 22.834L148.923 22.5195L148.397 22.1988L147.842 21.8843L147.25 21.5637L146.627 21.243L145.967 20.9223L145.278 20.6017L144.557 20.281L143.8 19.9603L143.005 19.6397L142.18 19.319L141.325 18.9983L140.44 18.6838L139.517 18.3693L138.572 18.0548L137.59 17.7465L136.57 17.4382L135.527 17.136L134.455 16.84L133.345 16.544L132.205 16.248L131.042 15.9643L129.843 15.6807L128.62 15.4032L127.36 15.138L126.07 14.8728L124.758 14.6138L123.415 14.361L122.042 14.1143L120.64 13.88L119.208 13.6457L117.753 13.4237L116.268 13.214L114.753 13.0105L113.215 12.8132L111.64 12.622L110.05 12.4493L108.43 12.2828L106.78 12.1225L105.1 11.9807L103.405 11.845L101.672 11.7155L99.925 11.6045L98.1475 11.5058L96.34 11.4195L94.51 11.3455L92.6575 11.2777L90.7825 11.2283L88.8775 11.1975L86.95 11.1728L85 11.1667L83.05 11.1728Z" fill="#C1C1C1"/>
</g>
<defs>
<filter id="filter0_d_16_91" x="0" y="0" width="170" height="168" filterUnits="userSpaceOnUse" color-interpolation-filters="sRGB">
<feFlood flood-opacity="0" result="BackgroundImageFix"/>
<feColorMatrix in="SourceAlpha" type="matrix" values="0 0 0 0 0 0 0 0 0 0 0 0 0 0 0 0 0 0 127 0" result="hardAlpha"/>
<feOffset dy="5"/>
<feGaussianBlur stdDeviation="5"/>
<feComposite in2="hardAlpha" operator="out"/>
<feColorMatrix type="matrix" values="0 0 0 0 0 0 0 0 0 0 0 0 0 0 0 0 0 0 0.7 0"/>
<feBlend mode="normal" in2="BackgroundImageFix" result="effect1_dropShadow_16_91"/>
<feBlend mode="normal" in="SourceGraphic" in2="effect1_dropShadow_16_91" result="shape"/>
</filter>
</defs>
</svg>
