<svg width="184" height="184" viewBox="0 0 184 184" fill="none" xmlns="http://www.w3.org/2000/svg">
<g filter="url(#filter0_d_16_93)">
<path fill-rule="evenodd" clip-rule="evenodd" d="M170.911 79.6983L99.3048 8.09563C97.2412 6.03188 94.5352 5 91.836 5C89.13 5 86.4308 6.03188 84.3672 8.09563L69.4978 22.9656L88.3578 41.8264C92.7448 40.3503 97.7673 41.3412 101.266 44.8332C104.772 48.3525 105.762 53.4162 104.239 57.817L122.415 75.9945C126.816 74.4774 131.893 75.4614 135.405 78.9807C140.312 83.8873 140.312 91.8348 135.405 96.7481C130.492 101.662 122.538 101.662 117.625 96.7481C113.935 93.0512 113.019 87.6321 114.892 83.0809L97.9382 66.1267V110.743C99.134 111.338 100.262 112.124 101.266 113.121C106.166 118.021 106.166 125.976 101.266 130.896C96.3528 135.802 88.392 135.802 83.4925 130.896C78.5793 125.976 78.5793 118.021 83.4925 113.121C84.702 111.905 86.1097 110.989 87.6062 110.374V65.3477C86.1097 64.7395 84.702 63.8238 83.4925 62.6074C79.7752 58.8899 78.8732 53.4298 80.7865 48.865L62.193 30.2707L13.0955 79.3703C11.0318 81.434 10 84.1333 10 86.8394C10 89.5387 11.0318 92.2448 13.0955 94.3086L84.702 165.911C86.7657 167.975 89.4648 169 92.164 169C94.87 169 97.5692 167.975 99.6328 165.911L170.911 94.6502C172.975 92.5796 174 89.8735 174 87.1743C174 84.4681 172.975 81.7689 170.911 79.7051" fill="#BA4747"/>
</g>
<defs>
<filter id="filter0_d_16_93" x="0" y="0" width="184" height="184" filterUnits="userSpaceOnUse" color-interpolation-filters="sRGB">
<feFlood flood-opacity="0" result="BackgroundImageFix"/>
<feColorMatrix in="SourceAlpha" type="matrix" values="0 0 0 0 0 0 0 0 0 0 0 0 0 0 0 0 0 0 127 0" result="hardAlpha"/>
<feOffset dy="5"/>
<feGaussianBlur stdDeviation="5"/>
<feComposite in2="hardAlpha" operator="out"/>
<feColorMatrix type="matrix" values="0 0 0 0 0 0 0 0 0 0 0 0 0 0 0 0 0 0 0.7 0"/>
<feBlend mode="normal" in2="BackgroundImageFix" result="effect1_dropShadow_16_93"/>
<feBlend mode="normal" in="SourceGraphic" in2="effect1_dropShadow_16_93" result="shape"/>
</filter>
</defs>
</svg>
