<svg width="135" height="135" viewBox="0 0 135 135" fill="none" xmlns="http://www.w3.org/2000/svg">
<path d="M67.5 0C30.2288 0 0 30.9872 0 69.2064C0 99.7841 19.3387 125.725 46.1644 134.878C49.5337 135.518 50.625 133.372 50.625 131.55V118.666C31.8487 122.853 27.9394 110.5 27.9394 110.5C24.8681 102.5 20.4413 100.372 20.4413 100.372C14.3156 96.0758 20.9081 96.1681 20.9081 96.1681C27.6863 96.6525 31.2525 103.302 31.2525 103.302C37.2713 113.879 47.0419 110.823 50.895 109.052C51.4969 104.582 53.2463 101.526 55.1813 99.8014C40.1906 98.0424 24.4294 92.108 24.4294 65.5962C24.4294 58.0354 27.0675 51.8644 31.3819 47.02C30.6844 45.2725 28.3725 38.2308 32.04 28.7034C32.04 28.7034 37.71 26.8463 50.6081 35.797C55.9912 34.2629 61.7625 33.4959 67.5 33.4671C73.2375 33.4959 79.0144 34.2629 84.4087 35.797C97.2956 26.8463 102.954 28.7034 102.954 28.7034C106.627 38.2365 104.316 45.2783 103.618 47.02C107.949 51.8644 110.565 58.0411 110.565 65.5962C110.565 92.1772 94.7756 98.0309 79.7456 99.7438C82.1644 101.889 84.375 106.099 84.375 112.558V131.55C84.375 133.39 85.455 135.552 88.8806 134.872C115.684 125.708 135 99.7726 135 69.2064C135 30.9872 104.777 0 67.5 0Z" fill="#ECECEC"/>
</svg>
