<svg width="127" height="123" viewBox="0 0 127 123" fill="none" xmlns="http://www.w3.org/2000/svg">
<path d="M88.2019 10.7145H5.0411C2.25698 10.7145 0 12.9715 0 15.7556V117.96C0 120.744 2.25698 123.001 5.0411 123.001H110.988C113.772 123.001 116.029 120.744 116.029 117.96V42.2842L111.029 47.2842V117.96C111.029 117.969 111.028 117.973 111.028 117.973C111.028 117.974 111.028 117.975 111.027 117.976L111.026 117.978C111.024 117.98 111.022 117.984 111.017 117.989C111.01 117.996 111.004 117.999 111.003 118C111.003 118 111.001 118 111.001 118C110.999 118 110.995 118.001 110.988 118.001H5.0411C5.03712 118.001 5.03411 118.001 5.03195 118C5.029 118 5.02763 118 5.02752 118C5.02622 117.999 5.01939 117.996 5.01204 117.989C5.00469 117.981 5.00173 117.975 5.00118 117.974C5.00115 117.974 5.00046 117.971 5.0002 117.967C5.00008 117.965 5 117.963 5 117.96V15.7556C5 15.7464 5.00083 15.7424 5.00091 15.742C5.00146 15.7407 5.00469 15.7339 5.01204 15.7265C5.01939 15.7192 5.02534 15.7162 5.02664 15.7157C5.02698 15.7156 5.03188 15.7145 5.0411 15.7145H83.2019L88.2019 10.7145Z" fill="#ECECEC"/>
<path d="M41.1716 87.4434L123.515 3.22864M123.515 3.22864V25.6859M123.515 3.22864H99.1862" stroke="#ECECEC" stroke-width="5" stroke-linecap="round" stroke-linejoin="round"/>
</svg>
