<svg width="210" height="210" viewBox="0 0 210 210" fill="none" xmlns="http://www.w3.org/2000/svg">
<path fill-rule="evenodd" clip-rule="evenodd" d="M113.735 11.6703C114.807 11.6246 115.903 11.9362 116.97 12.0353C118.753 12.4177 120.566 12.9276 122.254 13.651C123.32 14.0922 124.258 14.833 125.341 15.1926C126.797 15.9279 127.786 17.244 129.159 18.06C130.103 19.0449 130.891 19.7051 131.802 20.702C132.27 21.2815 132.683 21.8034 133.123 22.3939C133.302 23.1358 134.005 23.674 134.224 24.4442C134.601 25.3017 134.949 26.2462 135.105 27.2365C135.36 28.3543 135.61 29.4841 135.62 30.6139C135.459 39.3688 135.348 48.1335 135.62 56.9047C136.067 59.4889 135.829 62.1831 136.578 64.6856C136.955 66.5562 137.232 68.4748 138.042 69.975C139.44 72.484 140.54 75.1597 142.087 77.6862C142.938 78.6078 143.599 79.6385 144.434 80.6233C146.106 83.0223 147.504 85.8255 149.283 88.0393C150.424 90.3217 151.668 92.5529 152.949 94.795C153.905 97.6745 155.546 100.315 156.258 103.311C157.2 106.684 158.245 109.997 158.754 113.74C159.85 119.665 160.62 125.541 161.32 131.51C161.279 134.736 160.875 137.975 161.03 141.202C160.735 142.285 160.938 143.338 160.659 144.434C160.317 145.952 159.443 147.343 159.119 148.843C159.251 149.683 158.817 150.488 158.974 151.339C159.664 152.748 159.715 154.365 160.074 155.889C160.649 156.235 160.949 156.925 161.615 157.362C162.751 157.151 163.845 157.692 164.994 157.507C166.361 157.14 167.786 157.17 169.107 156.921C170.728 156.741 172.322 157.228 173.95 157.066C175.01 157.736 176.238 158.247 177.182 158.903C178.029 159.408 178.383 160.491 179.24 161.105C178.945 162.545 179.274 164.059 178.874 165.438C177.391 167.489 176.106 169.726 174.686 171.753C172.293 174.14 170.382 176.973 168.075 179.465C165.271 182.354 162.792 185.484 159.93 188.35C156.57 190.274 154.095 193.304 150.897 195.472C149.461 196.102 148.307 197.249 146.784 197.528C145.52 197.921 144.13 198.166 142.815 198.334H139.368C138.296 197.968 137.098 197.921 136.059 197.528C135.394 197.141 134.664 196.972 134.004 196.649C132.78 195.946 131.905 194.863 130.776 194.074C130.51 193.304 129.814 192.748 129.303 192.094C128.707 190.779 128.092 189.464 127.762 188.057C127.756 187.372 127.513 186.776 127.396 186.144C124.57 186.376 121.715 186.434 118.877 186.736C115.938 186.584 112.996 186.555 110.063 186.584C106.245 186.033 102.421 185.854 98.6093 185.044C95.8911 184.423 93.2034 183.838 90.532 182.986C88.5394 182.122 86.4422 181.416 84.5128 180.564C84.2121 180.117 83.5573 180.066 83.261 179.682C82.3164 180.459 81.7837 181.606 80.8391 182.545C80.1789 184.3 79.0317 185.84 78.122 187.47C77.745 187.921 77.1894 188.355 77.1665 188.934C76.3778 189.59 75.7927 190.256 75.0334 190.992C73.6138 191.543 72.362 192.533 70.8498 192.678C70.4674 193.158 69.4771 192.644 69.0882 193.124C67.7852 193.43 66.4865 192.788 65.1955 193.048C63.6202 192.342 61.8814 191.874 60.4215 191.137C57.7861 189.641 55.1551 188.17 52.4903 186.802C47.1675 182.85 41.9289 178.787 36.7781 174.613C35.1613 173.002 33.5456 171.385 31.9289 169.771C31.4887 168.483 31.0366 167.239 30.7588 165.951C31.0889 165.025 31.4081 164.178 31.6402 163.234C32.0858 162.836 32.503 162.232 32.9606 161.838C33.5402 160.657 35.1515 160.604 36.1941 160.077C37.3882 159.672 38.5343 159.7 39.7163 159.487C41.1413 159.481 42.185 158.688 43.39 158.462C43.5 158.022 43.8356 157.756 43.975 157.285C44.2528 155.745 43.5349 154.198 43.6798 152.662C44.0328 151.787 44.2942 150.929 44.6352 150.014C44.8793 149.372 45.5624 148.722 46.1071 148.403C46.5364 148.252 46.6409 147.847 47.2086 147.888C48.38 147.777 49.5593 147.777 50.7308 147.888C51.8311 148.281 52.9435 148.658 54.0329 149.133C54.5711 149.399 55.4002 149.238 56.0898 149.284C56.762 148.844 57.115 147.818 57.7818 147.448C58.5934 145.682 59.6293 144.028 60.8638 142.528C61.2168 142.372 61.2931 142.006 61.6744 141.938C62.1963 141.643 62.0056 140.882 62.0394 140.617C61.4892 137.053 61.9348 133.468 61.8945 129.892C62.1788 127.047 62.485 124.134 62.9959 121.377C63.4938 118.798 64.19 116.236 64.6813 113.666C65.7479 110.576 67.1086 107.488 68.2798 104.487C74.067 92.7316 80.6256 81.3882 86.7146 69.8301C87.8498 68.2133 88.6669 66.4059 89.7966 64.836V64.5407C89.5994 63.0111 90.312 61.4706 90.0919 59.9868V47.3567C89.7912 44.7147 90.0396 42.0608 89.7966 39.4254C89.7498 39.1302 89.6921 38.8404 89.6517 38.5451V31.054C89.8664 30.9963 89.7672 30.8633 89.7966 30.7642C89.6049 30.0288 90.1202 29.507 89.9415 28.777C90.3348 27.9371 90.5146 26.9587 90.6769 26.0599C91.5497 24.2164 92.6879 22.5107 94.0553 20.9972C95.306 19.728 96.6918 18.6908 98.0242 17.5447C99.8142 16.0903 101.871 15.0128 103.899 13.9462C105.254 13.5061 106.424 12.7467 108.007 12.4798C109.855 11.8904 111.831 11.6355 113.735 11.6703Z" fill="#363636"/>
<path fill-rule="evenodd" clip-rule="evenodd" d="M121.964 40.1641C122.849 40.7263 123.643 41.3919 124.605 41.9247C125.341 43.5708 124.578 45.3488 124.75 47.0637C123.952 49.2077 123.401 51.7276 121.229 52.9391C119.947 52.9565 118.622 52.4696 117.411 52.0588C118.541 51.6699 120.128 51.0968 120.644 49.7121C121.286 48.7501 121.616 47.6138 121.669 46.4786C121.564 45.1288 121.309 43.7038 120.492 42.586C119.802 41.7856 118.878 41.2208 117.851 40.9703C116.153 40.6511 114.842 41.7231 114.032 42.8071C113.627 43.6057 113.21 44.4228 113.076 45.3042C112.74 47.1878 113.442 49.163 114.321 50.7395C113.574 49.9453 112.178 49.8647 111.756 48.8329C110.534 46.0461 110.586 42.8943 111.682 40.1663C115.006 39.0627 118.626 38.8546 121.964 40.1641ZM99.1954 40.0878C99.8905 40.6097 100.962 40.4648 101.548 41.1882C102.598 43.8526 102.803 46.7761 102.133 49.5607C101.333 49.5193 100.65 50.9574 100.226 50.2961C101.13 48.2043 101.101 45.6789 99.861 43.6852C99.2183 42.8507 98.338 41.9704 97.2888 41.9236C96.5001 42.2602 95.6427 42.3343 95.087 43.1002C93.8069 44.584 93.6381 46.6976 93.7666 48.5344C94.0444 50.3767 95.2374 52.0163 96.9239 52.7931C96.1482 53.2278 95.4182 53.5982 94.5717 53.8183C93.5008 52.5262 92.9441 50.9214 92.4396 49.3395C91.738 47.0626 92.1379 44.7791 92.1498 42.5086C92.9898 41.5586 94.0793 40.857 95.233 40.382C96.1362 39.7294 97.9839 40.0824 99.1954 40.0878ZM122.549 65.128C123.487 67.8636 124.002 70.6897 124.75 73.5005C125.625 76.6229 127.184 79.4795 128.348 82.4635C129.629 84.8973 130.887 87.3421 131.947 89.9492C131.994 90.0538 132.051 90.1398 132.098 90.2444C134.652 95.7952 137.162 101.334 139.733 106.913C141.31 111.073 142.736 115.256 143.848 119.618C143.94 121.835 144.868 123.981 144.578 126.227C143.395 130.451 142.526 134.796 141.055 138.932C140.713 139.703 140.442 140.502 139.809 141.06C139.508 141.054 139.52 141.36 139.218 141.354C138.626 141.872 138.146 142.457 137.822 143.193C137.326 144.633 137.079 146.147 137.092 147.67C136.436 147.589 135.992 147.172 135.475 146.859C134.393 146.58 133.357 146.21 132.243 145.978C130.968 146.136 128.669 145.201 128.281 146.791C127.683 147.565 127.185 147.814 126.664 148.627C125.996 152.686 125.555 156.779 125.342 160.886C125.487 163.621 125.03 166.367 125.191 169.113C123.401 170.3 121.397 171.147 119.318 171.83C117.711 172.334 116.16 172.937 114.177 173.006C112.417 173.29 110.614 173.312 108.893 173.591C106.245 173.73 103.598 173.609 100.962 173.665C99.0505 173.453 96.9587 173.074 95.233 172.929C91.531 172.09 87.8802 171.089 84.5149 169.256C84.5726 167.955 85.2743 166.499 84.8047 165.073C82.8578 159.594 80.1353 154.438 77.9052 149.065C75.9125 143.991 74.3775 138.76 72.3947 133.719C71.1734 131.117 70.0491 128.48 69.1622 125.787C68.6578 125.097 69.1568 124.276 69.3126 123.581C70.0371 119.874 71.6527 116.548 72.9862 113.008C75.1815 108.616 77.1175 104.103 79.7409 99.9373C81.033 97.7878 80.9807 95.2908 81.7226 92.9615C82.5855 90.1289 84.029 87.609 85.2449 84.9616C87.0697 82.0637 88.3967 78.9064 90.1638 75.9986C91.7282 72.7597 92.846 69.1045 94.4976 66.1619C95.5174 67.0945 96.6243 67.8418 97.6549 68.8038C99.057 69.4815 100.552 70.1765 102.133 70.1243C104.289 70.4489 106.438 70.1362 108.597 70.1243C111.506 69.6438 114.404 68.989 116.971 67.5586C118.79 66.6369 120.527 65.4265 122.329 64.6911C122.405 64.8382 122.473 64.9831 122.549 65.128ZM68.6513 106.106C68.6916 105.961 68.7548 105.811 68.7962 105.666C68.7548 105.81 68.6916 105.961 68.6513 106.106Z" fill="#DDDDDD"/>
<path fill-rule="evenodd" clip-rule="evenodd" d="M107.787 47.6541C108.657 47.9265 109.647 48.0137 110.359 48.5355C110.58 48.9419 111.102 49.2023 111.24 49.6359C114.172 51.2461 117.034 52.9097 120.347 53.5982C121.888 53.4185 123.401 54.0732 124.75 54.85C125.127 55.3196 125.533 55.6955 125.926 56.0964C126.105 57.1575 126.813 58.0018 126.444 59.2536C126.182 59.8844 126.105 60.6906 125.631 61.1656C124.966 61.7441 124.687 62.5612 123.946 63.0711C120.939 64.4612 118.354 66.4658 115.208 67.7002C111.922 69.1307 107.78 69.4619 103.603 69.6808C102.4 69.4673 101.106 69.4782 100.006 69.0958C99.1943 68.9052 98.4121 68.3604 97.729 68.0641C95.8911 66.4942 93.7307 65.2478 92.2948 63.2214C92.2131 62.5896 91.8187 62.4566 91.6346 61.8999C91.0561 60.9216 91.1476 58.795 91.5594 57.711C91.6182 57.0159 92.1913 56.4537 92.2959 55.8741C94.636 54.2519 97.3826 53.498 99.7118 51.9107C100.859 50.3691 103.021 49.9703 104.121 48.5333C105.325 48.2163 106.495 47.2031 107.787 47.6541Z" fill="#E6C169"/>
<path fill-rule="evenodd" clip-rule="evenodd" d="M122.109 60.1339C120.643 61.6701 118.588 62.0405 116.675 62.7061C112.067 63.4709 107.468 64.068 102.869 64.3218C100.913 64.4329 98.9512 64.4329 96.9947 64.3218C95.6961 64.1083 94.4279 63.4818 93.321 62.7813C92.7709 62.0982 91.9309 61.4652 91.8557 60.5741C93.4202 61.2397 94.2079 63.1408 96.1133 63.2912C100.124 64.068 104.137 63.4186 108.157 63.1463C112.902 62.741 118.111 61.4489 122.109 60.1339Z" fill="#363636"/>
<path fill-rule="evenodd" clip-rule="evenodd" d="M89.6528 31.0562C89.6942 30.9581 89.7508 30.8655 89.7977 30.7664C89.7683 30.8655 89.8674 30.9984 89.6528 31.0562ZM119.977 35.3149C120.562 35.4423 120.905 36.0568 121.524 36.0502C122.183 36.7562 122.775 37.5101 123.43 38.252C123.673 39.5082 124.739 40.5573 124.605 41.9246C123.643 41.3919 122.85 40.7251 121.964 40.164C118.626 38.8545 115.006 39.0626 111.681 40.164C111.779 39.3469 112.525 38.7096 112.71 37.9622C113.523 36.7922 114.757 35.9053 116.09 35.39C117.271 34.6481 118.696 35.1057 119.977 35.3149ZM97.4337 36.4207C97.9959 36.5775 98.3434 37.1451 98.9056 37.2258C99.6072 38.0494 100.441 38.7728 100.962 39.7228C101.35 40.1335 101.24 40.7763 101.548 41.1881C100.962 40.4636 99.8904 40.6085 99.1954 40.0878C97.9839 40.0812 96.1362 39.7283 95.233 40.383C94.0793 40.858 92.9898 41.5596 92.1498 42.5097V41.4845C92.4372 40.2585 92.8813 39.0747 93.4713 37.9622C94.137 37.533 94.4159 36.7856 95.233 36.5656C95.7015 36.1886 96.8138 36.3509 97.4337 36.4207ZM89.7977 39.4276C89.6528 39.1323 89.6528 38.8425 89.6528 38.5473C89.6942 38.8425 89.7508 39.1323 89.7977 39.4276ZM89.7977 64.8381C89.6528 64.7335 89.6528 64.6464 89.7977 64.5429V64.8381ZM132.097 90.2433C132.05 90.1398 131.992 90.0526 131.946 89.948C132.161 89.9415 132.068 90.1387 132.097 90.2433ZM103.163 109.263C103.308 110.063 103.256 111.018 103.458 111.685C102.451 117.741 101.773 123.765 101.181 129.895C100.619 134.936 100.771 139.995 99.9307 145.029C99.7858 145.469 99.4612 146.054 98.9753 146.348C98.558 146.449 98.326 146.21 98.1691 145.978C97.9142 145.44 97.6472 145.033 97.6538 144.292C97.3531 143.196 97.5383 142.136 97.5089 141.06C97.6995 134.28 98.4534 127.52 99.2705 120.794C99.8153 117.195 100.047 113.574 101.183 110.069C101.344 109.595 101.653 109.185 102.064 108.899C102.342 108.829 102.401 108.691 102.724 108.748C102.868 108.926 103.019 109.084 103.163 109.263Z" fill="#C6C7C9"/>
<path fill-rule="evenodd" clip-rule="evenodd" d="M66.6696 140.915C67.4453 141.198 67.9203 141.918 68.6514 142.311C69.3693 144.083 70.3607 145.606 71.0732 147.372C73.2227 152.971 75.0073 158.658 76.8027 164.413C76.9411 165.381 77.3932 166.168 77.5327 167.201C77.7124 171.673 78.9359 176.059 79.0045 180.566C78.7779 181.666 79.1952 183.179 78.6395 184.02C78.1929 185.81 77.3006 187.286 76.4323 188.938C75.5172 189.778 74.7872 190.74 73.4951 191.07C72.8284 191.469 72.0341 191.766 71.1484 191.951C69.5545 192.428 67.4748 192.57 65.5638 192.391C64.214 191.893 62.777 191.5 61.4555 190.996C58.5477 189.206 55.4417 187.727 52.4925 186.146C47.5736 182.266 42.4401 178.469 37.6617 174.548C35.9 172.758 34.1384 170.98 32.3724 169.19C32.1457 168.165 31.7579 167.12 31.3472 166.177C31.6718 165.064 32.222 164.02 32.5238 162.942C32.9988 162.585 33.5087 162.006 33.8442 161.697C35.0088 161.263 36.1157 160.596 37.3664 160.52C38.6814 160.161 40.4082 160.364 41.624 159.784C42.5403 159.281 43.9304 159.268 44.2725 158.169C44.388 157.694 44.5732 157.369 44.8576 156.992C44.7769 156.048 44.498 155.081 44.4926 154.13C44.4229 153.552 44.2605 152.496 44.6375 152.075C44.632 151.09 45.4666 150.319 45.5929 149.432C46.0799 149.166 46.4678 148.776 47.0583 148.628C47.8405 148.69 48.4844 148.192 49.2666 148.476C50.0423 148.604 50.842 148.47 51.6122 148.916C52.4119 149.401 53.5297 149.32 54.2607 149.946C54.8283 150.086 55.4776 149.986 56.091 150.015C57.0127 149.272 57.4517 148.334 58.368 147.594C58.9879 146.417 59.5729 145.223 60.3551 144.14C60.743 143.551 61.1951 143.051 61.6756 142.529C62.3597 142.269 62.7716 141.689 63.4372 141.499C64.3404 140.965 65.383 140.624 66.4496 140.618C66.4496 140.811 66.6293 140.734 66.6696 140.915ZM133.564 147.01C134.213 147.05 134.906 147.403 135.475 147.521C135.915 147.75 136.177 148.251 136.796 148.255C137.015 150 136.541 151.785 137.015 153.544C137.183 154.348 137.6 155.138 137.973 155.821C138.888 156.991 140.348 157.56 141.42 158.538C142.826 159.17 144.205 159.97 145.752 160.224C147.005 160.556 149.101 160.885 150.306 160.224C150.672 159.924 151.235 159.784 151.559 159.565C152.468 158.737 153.087 157.769 153.836 156.847C154.832 154.548 156.107 152.385 157.214 150.168C157.624 150.329 157.711 150.822 158.095 151.049C159.236 152.804 158.727 155.173 159.999 156.847C160.564 157.207 160.893 157.995 161.616 158.024C162.631 158.209 163.876 157.95 164.773 158.243C167.709 157.634 170.743 157.509 173.732 157.803C174.681 158.035 175.562 158.761 176.447 158.98C177.183 159.703 177.809 160.631 178.505 161.326C178.528 162.726 178.476 164.171 178.065 165.514C176.507 167.746 175.203 170.004 173.662 172.194C170.985 174.728 168.749 177.809 166.466 180.567C164.473 182.306 162.926 184.583 161.177 186.443C160.487 187.075 159.771 187.624 159.121 188.354C158.206 188.766 157.661 189.628 156.697 189.965C154.867 191.663 152.775 192.938 151.044 194.814C149.944 195.272 148.901 195.968 147.812 196.506C145.313 197.399 142.626 197.798 140.03 197.753C138.697 197.249 137.232 197.549 135.917 196.796C135.216 196.374 134.363 196.184 133.715 195.695C132.342 194.642 131.143 193.361 130.042 192.023C129.515 191.253 129.272 190.55 128.942 189.676C127.83 185.012 126.948 180.344 125.929 175.649C126.003 170.245 125.743 164.561 126.148 159.422C126.362 157.892 126.009 156.022 126.445 154.724C126.617 152.609 127.22 150.507 127.398 148.409C128.095 147.944 128.426 147.232 129.011 146.643C130.527 146.76 132.468 146.336 133.564 147.01ZM79.3008 173.224C80.6038 174.325 82.3764 174.836 83.0431 176.604C83.2512 177.159 83.5595 177.865 83.4833 178.51C82.116 180.317 79.9491 181.662 79.5209 184.094C79.9611 180.363 79.4752 176.631 78.7855 172.929C78.876 173.068 79.2475 172.992 79.3008 173.224Z" fill="#E6C169"/>
<path fill-rule="evenodd" clip-rule="evenodd" d="M68.6512 106.106C68.6218 106.222 68.6044 106.355 68.576 106.472C68.6044 106.354 68.6218 106.222 68.6512 106.106ZM67.7709 108.899C67.7252 108.997 67.6663 109.084 67.3994 109.327C67.6663 109.084 67.7241 108.997 67.7709 108.899ZM68.4998 106.546C68.4704 106.663 68.4595 106.795 68.43 106.912C68.4595 106.794 68.4714 106.663 68.4998 106.546ZM68.356 106.986C68.3276 107.103 68.3102 107.236 68.2808 107.352C68.3091 107.236 68.3265 107.104 68.356 106.986ZM68.2111 107.426C68.1816 107.543 68.1642 107.676 68.1359 107.792C68.1642 107.676 68.1816 107.544 68.2111 107.426Z" fill="#DDDDDD"/>
<path fill-rule="evenodd" clip-rule="evenodd" d="M66.7392 117.195C66.6695 117.195 66.785 117.883 66.8493 118.598C66.9244 118.551 66.9604 119.223 66.9244 119.94C66.809 119.203 66.7109 118.527 66.7392 118.591C66.6978 118.457 66.6172 117.959 66.5769 117.566C66.4897 117.166 66.4157 116.541 66.4843 116.963C66.3459 116.325 66.5246 115.41 66.542 114.651C66.5943 114.32 66.5878 114.623 66.7621 112.206C67.041 110.366 67.5857 108.446 70.0534 102.56C67.5509 109.258 67.284 110.342 67.3134 110.554C67.1456 110.95 67.029 112.305 66.9484 113.22C66.8427 113.967 66.675 115.938 66.7392 117.195Z" fill="#DDDDDD"/>
<path fill-rule="evenodd" clip-rule="evenodd" d="M146.122 99.6464C146.894 101.709 146.935 104.124 147.073 106.105C147.358 109.623 147.066 113.157 147.073 116.678C146.511 122.559 145.711 128.475 144.432 134.303C144.321 135.091 143.74 135.669 143.551 136.361C143.406 136.522 143.255 136.522 143.111 136.361C143.249 135.874 143.544 135.567 143.696 135.108C144.453 131.742 145.057 128.297 145.683 124.908C146.093 122.278 146.151 119.646 146.342 117.045L146.487 116.9C146.291 115.063 146.817 113.221 146.632 111.391C146.846 111.246 146.753 110.997 146.783 110.806C146.928 108.308 146.359 105.805 146.488 103.313C146.373 101.239 145.434 99.2923 145.243 97.2942C144.947 95.3234 144.066 93.5051 141.443 86.4541C143.579 91.7151 143.666 91.7848 143.684 91.8023C144.02 92.8274 144.646 93.6565 144.802 94.6523C145.354 96.135 145.792 98.0013 146.122 99.6464ZM68.0598 107.867C68.0315 107.982 68.0195 108.117 67.9912 108.233C68.0195 108.116 68.0315 107.982 68.0598 107.867ZM68.1361 107.792C68.1078 107.82 68.0903 107.839 68.0609 107.866L68.1361 107.792ZM67.9912 108.233C67.9618 108.267 67.9454 108.278 67.916 108.308C67.9443 108.278 67.9618 108.267 67.9912 108.233Z" fill="#DDDDDD"/>
</svg>
