<svg width="187" height="121" viewBox="0 0 187 121" fill="none"
    xmlns="http://www.w3.org/2000/svg">
    <path d="M0.564453 121L45.5688 0.264648H60.3477L105.436 121H88.3188L80.2197 97.4541H26.1978L18.0151 121H0.564453ZM30.5396 85.0967H75.9614L53.4175 19.5522L30.5396 85.0967Z" fill="white"/>
    <path d="M90.083 121V0.264648H143.938C150.729 0.264648 156.629 1.37793 161.639 3.60449C166.705 5.77539 170.629 9.47705 173.412 14.7095C176.251 19.8862 177.67 26.9834 177.67 36.001C177.67 45.7422 176.084 52.9785 172.911 57.71C169.794 62.3857 165.703 65.7812 160.637 67.8965L186.271 121H168.987L145.023 70.9023H106.949V121H90.083ZM106.949 58.2109H142.519C147.417 58.2109 151.174 57.2925 153.791 55.4556C156.407 53.6187 158.216 51.1416 159.218 48.0244C160.275 44.8516 160.804 41.3447 160.804 37.5039C160.804 33.6074 160.47 29.7944 159.802 26.0649C159.19 22.3354 157.743 19.2461 155.46 16.7969C153.178 14.292 149.504 13.0396 144.439 13.0396H106.949V58.2109Z" fill="white"/>
</svg>
