<svg width="166" height="185" viewBox="0 0 166 185" fill="none" xmlns="http://www.w3.org/2000/svg">
<g filter="url(#filter0_d_16_103)">
<path d="M82.9984 170C80.7462 170 78.6258 169.413 76.6434 168.327L56.5441 156.349C53.524 154.676 55.0116 154.09 55.9593 153.771C60.0589 152.414 60.7818 152.098 65.0163 149.659C65.4661 149.343 66.054 149.523 66.5488 149.794L81.9607 159.059C82.5454 159.375 83.3133 159.375 83.763 159.059L144.058 124.029C144.643 123.713 144.961 123.123 144.961 122.356V52.5186C144.961 51.7517 144.646 51.1619 144.058 50.8461L83.763 15.9965C83.1783 15.6806 82.4105 15.6806 81.9607 15.9965L21.6657 50.8461C21.081 51.1619 20.7629 51.887 20.7629 52.5186V122.402C20.7629 122.988 21.0778 123.758 21.6657 124.074L38.1603 133.613C47.0823 138.18 52.6726 132.846 52.6726 127.555V58.5772C52.6726 57.6716 53.4373 56.7693 54.475 56.7693H62.1826C63.0854 56.7693 63.985 57.5363 63.985 58.5772V127.555C63.985 139.533 57.4951 146.494 46.141 146.494C42.6711 146.494 39.9659 146.494 32.2616 142.698L16.355 133.613C12.4353 131.354 10 127.103 10 122.54V52.6991C10 48.1326 12.4321 43.9303 16.355 41.6261L76.6434 6.59279C80.4281 4.46907 85.5654 4.46907 89.3501 6.59279L149.645 41.6229C153.565 43.882 156 48.1326 156 52.6959V122.579C156 127.145 153.568 131.348 149.645 133.652L89.3501 168.682C87.371 169.546 85.1156 170 82.9984 170ZM101.565 121.95C75.1109 121.95 69.6588 109.837 69.6588 99.5305C69.6588 98.625 70.4234 97.7226 71.4612 97.7226H79.3936C80.2964 97.7226 81.0611 98.3091 81.0611 99.2598C82.2787 107.307 85.7486 111.238 101.745 111.238C114.452 111.238 119.862 108.344 119.862 101.519C119.862 97.5873 118.33 94.6933 98.5452 92.7501C82.0506 91.0775 71.776 87.4617 71.776 74.2618C71.776 61.9674 82.0506 54.6907 99.2649 54.6907C118.596 54.6907 128.106 61.3809 129.324 75.8892C129.324 76.3404 129.189 76.7948 128.874 77.246C128.559 77.5618 128.11 77.8325 127.657 77.8325H119.817C119.053 77.8325 118.285 77.246 118.15 76.4758C116.347 68.1581 111.66 65.4028 99.2681 65.4028C85.3887 65.4028 83.7213 70.2399 83.7213 73.9009C83.7213 78.2869 85.7036 79.6404 104.405 82.0831C122.972 84.5227 131.759 88.0031 131.759 101.023C131.669 114.355 120.762 121.95 101.565 121.95Z" fill="#57914B"/>
</g>
<defs>
<filter id="filter0_d_16_103" x="0" y="0" width="166" height="185" filterUnits="userSpaceOnUse" color-interpolation-filters="sRGB">
<feFlood flood-opacity="0" result="BackgroundImageFix"/>
<feColorMatrix in="SourceAlpha" type="matrix" values="0 0 0 0 0 0 0 0 0 0 0 0 0 0 0 0 0 0 127 0" result="hardAlpha"/>
<feOffset dy="5"/>
<feGaussianBlur stdDeviation="5"/>
<feComposite in2="hardAlpha" operator="out"/>
<feColorMatrix type="matrix" values="0 0 0 0 0 0 0 0 0 0 0 0 0 0 0 0 0 0 0.7 0"/>
<feBlend mode="normal" in2="BackgroundImageFix" result="effect1_dropShadow_16_103"/>
<feBlend mode="normal" in="SourceGraphic" in2="effect1_dropShadow_16_103" result="shape"/>
</filter>
</defs>
</svg>
