<svg width="191" height="187" viewBox="0 0 191 187" fill="none" xmlns="http://www.w3.org/2000/svg">
<g filter="url(#filter0_d_16_76)">
<path d="M94.8836 5C51.4731 5 54.184 23.4812 54.184 23.4812L54.2324 42.6276H95.6579V48.3763H37.7783C37.7783 48.3763 10 45.2835 10 88.2843C10 131.285 34.2455 129.76 34.2455 129.76H48.7154V109.806C48.7154 109.806 47.9355 86.0039 72.5738 86.0039H113.661C113.661 86.0039 136.745 86.3702 136.745 64.102V27.282C136.745 27.282 140.249 5 94.8836 5ZM72.0415 17.8751C76.163 17.8751 79.4942 21.1454 79.4942 25.1916C79.4942 29.2378 76.163 32.5081 72.0415 32.5081C67.9199 32.5081 64.5888 29.2378 64.5888 25.1916C64.5887 21.1454 67.9199 17.8751 72.0415 17.8751Z" fill="#7FA6A9"/>
<path d="M96.1164 172C139.527 172 136.816 153.519 136.816 153.519L136.768 134.372H95.3421V128.624H153.222C153.222 128.624 181 131.716 181 88.7156C181 45.7149 156.754 47.2398 156.754 47.2398H142.285V67.1938C142.285 67.1938 143.065 90.9961 118.426 90.9961H77.3394C77.3394 90.9961 54.2554 90.6298 54.2554 112.898V149.718C54.2554 149.718 50.7506 172 96.1164 172ZM118.959 159.125C114.837 159.125 111.506 155.855 111.506 151.808C111.506 147.762 114.837 144.492 118.959 144.492C123.08 144.492 126.411 147.762 126.411 151.808C126.411 155.855 123.08 159.125 118.959 159.125Z" fill="#AB9E6E"/>
</g>
<defs>
<filter id="filter0_d_16_76" x="0" y="0" width="191" height="187" filterUnits="userSpaceOnUse" color-interpolation-filters="sRGB">
<feFlood flood-opacity="0" result="BackgroundImageFix"/>
<feColorMatrix in="SourceAlpha" type="matrix" values="0 0 0 0 0 0 0 0 0 0 0 0 0 0 0 0 0 0 127 0" result="hardAlpha"/>
<feOffset dy="5"/>
<feGaussianBlur stdDeviation="5"/>
<feComposite in2="hardAlpha" operator="out"/>
<feColorMatrix type="matrix" values="0 0 0 0 0 0 0 0 0 0 0 0 0 0 0 0 0 0 0.7 0"/>
<feBlend mode="normal" in2="BackgroundImageFix" result="effect1_dropShadow_16_76"/>
<feBlend mode="normal" in="SourceGraphic" in2="effect1_dropShadow_16_76" result="shape"/>
</filter>
</defs>
</svg>
