<svg width="191" height="191" viewBox="0 0 191 191" fill="none" xmlns="http://www.w3.org/2000/svg">
<g filter="url(#filter0_d_16_78)">
<path fill-rule="evenodd" clip-rule="evenodd" d="M10 90.5V176H95.5H181V90.5V5H95.5H10V90.5ZM47.8145 91.067L47.7602 98.0699H58.8888H70.0173V129.691V161.313H77.8888H85.7602V129.691V98.0699H96.8888H108.017V91.2027C108.017 87.4027 107.936 84.227 107.827 84.1456C107.746 84.037 94.2016 83.9827 77.7802 84.0099L47.8959 84.0913L47.8145 91.067ZM158.674 90.0542C155.634 86.9057 152.323 84.9785 147.98 83.8928C145.021 83.16 138.019 82.9428 135.006 83.5128C125.723 85.2771 119.29 91.2214 117.471 99.7442C116.956 102.187 117.119 108.24 117.77 110.656C118.557 113.56 120.457 117.034 122.466 119.206C125.94 122.951 129.74 125.313 138.561 129.113C146.27 132.451 148.984 134.053 150.314 135.953C151.346 137.446 151.59 138.314 151.59 140.296C151.59 142.494 150.939 143.987 149.364 145.426C145.673 148.737 138.181 149.144 132.726 146.267C130.826 145.263 127.677 142.25 126.239 140.051L125.207 138.531L120.294 141.381C117.58 142.956 114.703 144.611 113.943 145.046C113.156 145.507 112.45 145.941 112.369 146.05C112.179 146.376 115.246 150.909 116.82 152.646C120.837 157.097 127.351 160.49 134.219 161.711C137.367 162.281 144.316 162.363 147.247 161.847C156.72 160.246 163.451 155.414 166.166 148.303C168.636 141.761 167.821 132.967 164.184 127.457C160.927 122.517 155.689 119.043 143.447 113.777C136.797 110.9 134.68 109.489 133.54 107.127C132.997 106.041 132.807 105.254 132.807 103.924C132.78 99.3914 136.119 96.6771 141.303 97.0299C144.831 97.2742 147.139 98.6585 149.337 101.861C150.07 102.947 150.721 103.653 150.884 103.544C155.39 100.749 162.827 95.7542 162.773 95.5371C162.583 94.8042 160.249 91.7371 158.674 90.0542Z" fill="#3F6884"/>
</g>
<defs>
<filter id="filter0_d_16_78" x="0" y="0" width="191" height="191" filterUnits="userSpaceOnUse" color-interpolation-filters="sRGB">
<feFlood flood-opacity="0" result="BackgroundImageFix"/>
<feColorMatrix in="SourceAlpha" type="matrix" values="0 0 0 0 0 0 0 0 0 0 0 0 0 0 0 0 0 0 127 0" result="hardAlpha"/>
<feOffset dy="5"/>
<feGaussianBlur stdDeviation="5"/>
<feComposite in2="hardAlpha" operator="out"/>
<feColorMatrix type="matrix" values="0 0 0 0 0 0 0 0 0 0 0 0 0 0 0 0 0 0 0.5 0"/>
<feBlend mode="normal" in2="BackgroundImageFix" result="effect1_dropShadow_16_78"/>
<feBlend mode="normal" in="SourceGraphic" in2="effect1_dropShadow_16_78" result="shape"/>
</filter>
</defs>
</svg>
