<svg width="960" height="133" viewBox="0 0 960 133" fill="none"
  xmlns="http://www.w3.org/2000/svg">
  <path fill-rule="evenodd" clip-rule="evenodd" d="M20 90.5L0 101V133H960V3L940 1.79981L938.845 1.73633C918.488 0.612308 879.244 -1.55468 840 6C800 13.6992 760 31.2998 720 57.7002C711.792 63.0967 703.584 68.8594 695.377 74.6221C663.584 96.9443 631.792 119.267 600 120.3C567.184 121.448 534.368 99.8477 501.552 78.2471C494.368 73.5186 487.184 68.79 480 64.2998C440 39.2998 400 21.7002 360 42.2002C343.253 50.7832 326.505 66.0449 309.758 81.3066C286.505 102.496 263.253 123.687 240 127C215.698 130.463 191.396 114.326 167.095 98.1885C151.396 87.7647 135.698 77.3408 120 72.2002C80 59 40 80 20 90.5Z" fill="#121112"/>
</svg>
