<svg xmlns="http://www.w3.org/2000/svg" xmlns:xlink="http://www.w3.org/1999/xlink" width="414" height="299.154" viewBox="0 0 414 299.154">
  <defs>
    <linearGradient id="linear-gradient" x1="0.5" x2="0.5" y2="1" gradientUnits="objectBoundingBox">
      <stop offset="0" stop-color="#0c0534"/>
      <stop offset="1" stop-opacity="0"/>
    </linearGradient>
  </defs>
  <g id="coding_person" data-name="coding person" transform="translate(-449.667 -413.864)">
    <rect id="Floor" width="413.767" height="0.899" transform="translate(449.667 603.701)" fill="#47435e"/>
    <path id="Shadow" d="M240.013,109.318l-1.92-2.543c-54.739.864-150.951,2.375-154.731,2.375C78.068,109.15,0,1.587,0,1.587L105.551,0l98.38,61.541L159.588,2.824,179.065.9,277.2,64.3v45.013Z" transform="translate(586.47 603.701)" fill="url(#linear-gradient)"/>
    <g id="Person" transform="translate(561.574 413.864)">
      <g id="Body" transform="translate(8.945)">
        <g id="Legs" transform="translate(14.233 181.902)">
          <path id="Path_1" data-name="Path 1" d="M87.149,494.381,85.3,503.516l34.354,11.474,2.727-13.482Z" transform="translate(-85.302 -494.381)" fill="#eeabab"/>
          <path id="Path_4" data-name="Path 4" d="M253.421,517.582l-1.228,9.238-36.218-.339,1.812-13.635Z" transform="translate(-157.211 -504.542)" fill="#eeabab"/>
        </g>
        <g id="Hands" transform="translate(0 107.639)">
          <path id="Path_1421" data-name="Path 1421" d="M167.062,491.448a14.868,14.868,0,0,0-.05,3.667l1.207,17.334c.113,1.634.225,3.263.378,4.893.29,3.163.722,6.3,1.259,9.433a1.68,1.68,0,0,0,1.722,1.634,61.6,61.6,0,0,0,16.225.773c8.275-.462,29.444-1.336,30.737-3.016s.54-4.4-1.147-5.756-29.623-4.671-29.623-4.671a27.528,27.528,0,0,1,1.878-6.254c1.4-3.643,2.714-7.4,2.739-11.307s-1.445-8-4.641-10.24c-2.629-1.835-6.015-2.176-9.219-2.1-2.331.067-6.359-.492-8.489.42C168.353,487,167.376,489.8,167.062,491.448Z" transform="translate(-166.922 -485.73)" fill="#eeabab"/>
          <path id="Path_1421-2" data-name="Path 1421" d="M340.77,486.259c-2.129-.912-6.157-.353-8.489-.42-3.2-.076-6.59.265-9.219,2.1-3.2,2.235-4.667,6.338-4.641,10.24s1.336,7.664,2.739,11.307a27.527,27.527,0,0,1,1.878,6.254s-27.936,3.312-29.622,4.671-2.44,4.076-1.147,5.756,41.649,3.367,46.963,2.243a1.68,1.68,0,0,0,1.722-1.634c.537-3.133.97-6.271,1.259-9.433.153-1.63.265-3.259.378-4.893l1.207-17.334a14.866,14.866,0,0,0-.05-3.667C343.432,489.8,342.455,487,340.77,486.259Z" transform="translate(-235.54 -485.73)" fill="#eeabab"/>
        </g>
        <g id="Head" transform="translate(28.579 0)">
          <circle id="Ellipse_276" data-name="Ellipse 276" cx="23.327" cy="23.327" r="23.327" transform="translate(3.105 9.423)" fill="#eeabab"/>
          <path id="Hair" d="M278.692,259a26.941,26.941,0,0,0-15.326-11.716l-2.864,2.09v-2.714a24.8,24.8,0,0,0-4.632-.27l-2.471,2.235v-2.05a26.683,26.683,0,0,0-18.407,10.949c-5.365,7.735-6.271,18.5-.994,26.293,1.449-4.452,3.207-8.629,4.656-13.081a13.175,13.175,0,0,0,3.433.017l1.762-4.113.492,3.939c5.463-.476,13.566-1.521,18.745-2.478l-.5-3.022,3.013,2.511c1.587-.365,2.529-.7,2.451-.95,3.852,6.21,8.566,10.175,12.417,16.385C281.925,274.271,283.609,266.991,278.692,259Z" transform="translate(-230.472 -246.376)" fill="#282828"/>
        </g>
      </g>
      <g id="Pants" transform="translate(0 147.936)">
        <g id="Shoes" transform="translate(10.685 29.845)">
          <path id="Path_2" data-name="Path 2" d="M188.585,644.1l-3.639,17.99h0a11.7,11.7,0,0,1-13.783,9.145l-.373-.075,5.958-29.454Z" transform="translate(-170.79 -641.705)" fill="#1c1b26"/>
          <path id="Path_5" data-name="Path 5" d="M415.387,675.325l-3.959,29.789-.377-.05A11.7,11.7,0,0,1,401,691.928h0l2.418-18.194Z" transform="translate(-297.415 -659.33)" fill="#1c1b26"/>
        </g>
        <g id="Legs-2" data-name="Legs" transform="translate(0 0)">
          <path id="Path_1423" data-name="Path 1423" d="M308.49,585.155a9.047,9.047,0,0,1,4.439-.138c4.826.659,9.724,1.336,14.2,3.263a13.954,13.954,0,0,1,5.519,3.867,19.171,19.171,0,0,1,2.692,5.46l1.613,4.419a21.27,21.27,0,0,1,1.407,5.179c.5,5.288-3.112,10.273-7.661,13.021s-9.9,3.725-15.121,4.75-10.454,2.159-15.65,3.36a63,63,0,0,1-7.363,1.449c-5.561.63-11.374-.3-16.658,1.542a63.438,63.438,0,0,1-6.341,2.335,39.462,39.462,0,0,1-4.385.668l-10,1.142a54.561,54.561,0,0,1-6.132.47,54.89,54.89,0,0,1-12.907-2.069,2.459,2.459,0,0,1-2.175-2.822q-.643-5.633-1.124-11.277a5.654,5.654,0,0,1,.492-3.574c.84-1.259,2.478-1.655,3.974-1.9a103.689,103.689,0,0,1,19.187-1.332c2.44-2.44-1.811-18.782,1.386-20.11a28.739,28.739,0,0,0,3.407-1.852c5.718-3.336,6.309.721,12.906.166a17.414,17.414,0,0,0,3.827-.546c2.473-.769,4.164-.276,6.7.237a5.888,5.888,0,0,1,1.259-2.629c.36-.307,13.613,4.953,13.945,4.626a3.444,3.444,0,0,0,.659-2.818c-.105-.991,1.491.2,1.747-.77a4.111,4.111,0,0,1,.466-1.037A5.67,5.67,0,0,1,308.49,585.155Z" transform="translate(-194.216 -580.551)" fill="#2b2a39"/>
          <path id="Path_1427" data-name="Path 1427" d="M181.212,584.619c0,.42-.659,0-.72-.45-.462-3.4-3.159-6.2-6.3-7.56A20.621,20.621,0,0,0,164.07,575.5c-5.145.487-10.921,2.457-12.8,7.266-.445,1.124-4.616,11.135-4.209,13.386,1.1,6.006,5.2,11.143,10.181,14.7s10.793,5.683,16.594,7.6a287.79,287.79,0,0,0,47.042,11.235,45.235,45.235,0,0,1,7.678,1.583c2.217.743,4.292,1.856,6.46,2.73,5.04,2.024,10.463,2.747,15.835,3.457a3.248,3.248,0,0,0,2.642-.42c.874-.809.585-2.222.336-3.385a18.208,18.208,0,0,1,2.146-12.92c.9-1.512,2.069-3.062,1.9-4.812-.2-2.041-2.235-3.486-4.259-3.814s-4.082.156-6.116.42a3.276,3.276,0,0,1-2.079-.206,4.153,4.153,0,0,1-.815-.722,9.211,9.211,0,0,0-10.727-1.5c-.752.42-1.889-.517-2.671-.869l-8.833-4c-10.148-4.591-2.646-23.181-13.382-26.087a6.527,6.527,0,0,1-2.394-1c-.533-.42-.916-.989-1.407-1.458-1.071-1.012-20.263,12.562-21.547,11.844S180.918,586.059,181.212,584.619Z" transform="translate(-147.031 -575.34)" fill="#2b2a39"/>
        </g>
      </g>
      <g id="Shirt" transform="translate(7.83 59.899)">
        <g id="Arms" transform="translate(0 19.955)">
          <path id="Path_1430" data-name="Path 1430" d="M172.734,426.624a4.347,4.347,0,0,0-.932,1.491,70.5,70.5,0,0,0-5.922,24.2,2.419,2.419,0,0,1-.273,1.172,5.128,5.128,0,0,1-.617.668,2.319,2.319,0,0,0,.277,3.267q.057.048.118.093c.693-1.3,2.352-1.73,3.827-1.844,7.06-.559,13.957,2.726,21.039,2.478-.5-1.726-1.218-3.385-1.626-5.133-1.8-7.758,2.692-16.2-.063-23.677a6.106,6.106,0,0,0-2.919-3.621,7.775,7.775,0,0,0-1.869-.495c-1.789-.323-5.352-1.705-7.082-1.151-.639.206-.89.806-1.42,1.169C174.467,425.759,173.4,425.948,172.734,426.624Z" transform="translate(-164.443 -423.946)" fill="#494949"/>
          <path id="Path_1430-2" data-name="Path 1430" d="M367.923,425.245c-.529-.363-.781-.963-1.42-1.169-1.73-.554-5.292.827-7.081,1.151a7.774,7.774,0,0,0-1.869.495,6.106,6.106,0,0,0-2.919,3.621c-2.755,7.472,1.739,15.919-.063,23.677-.407,1.747-1.126,3.406-1.626,5.133,7.082.248,13.978-3.037,21.039-2.478,1.475.113,3.134.54,3.827,1.844q.06-.045.118-.093a2.319,2.319,0,0,0,.277-3.267,5.124,5.124,0,0,1-.617-.668,2.419,2.419,0,0,1-.273-1.172,70.506,70.506,0,0,0-5.922-24.2,4.347,4.347,0,0,0-.932-1.491C369.794,425.948,368.727,425.759,367.923,425.245Z" transform="translate(-268.175 -423.946)" fill="#494949"/>
        </g>
        <path id="Body-2" data-name="Body" d="M279.467,406.056c-.8-4.826-.463-3.1-2.705-7.452-1.474-2.848-2.218-2.981-5.988-5.392-.649-.4-1.487-1-2.248-1.439-.924-.445-13.344-7.535-15.318-8.77-1.695-1.06-4.371-3.023-5.72-3.023-1.357-.03-6.562,1.181-26.875-.406a73.37,73.37,0,0,0-9.9,4.867c-.065-.043-21.083,11.243-21.873,11.214a4.593,4.593,0,0,0-3.743,2.1,13.586,13.586,0,0,0-1.68,4.141c4.591,10.223,8.791,20.459,13.382,30.682a2.618,2.618,0,0,1,.332,1.259,3.073,3.073,0,0,1-.571,1.259c-2.251,3.617-2.18,8.165-1.934,12.416s.55,8.74-1.349,12.55c-.517,1.046-1.189,2-1.68,3.049-1.151,2.369-1.567,9.946-.895,12.491l84.215,2.413c-1.467-4.032-5.348-46.061-3.376-61.42C271.991,413.113,279.467,406.056,279.467,406.056Z" transform="translate(-174.886 -379.573)" fill="#505050"/>
      </g>
    </g>
    <g id="Laptop" transform="translate(578.684 517.381) scale(1 0.974)">
      <path id="Path_6" data-name="Path 6" d="M90.3,60.092H3.809A3.813,3.813,0,0,1,0,56.283V3.809A3.813,3.813,0,0,1,3.809,0H90.3a3.813,3.813,0,0,1,3.809,3.809V56.284A3.813,3.813,0,0,1,90.3,60.092Z" transform="translate(0 0)" fill="#3f3d56"/>
      <g id="Icon_ionic-logo-windows" data-name="Icon ionic-logo-windows" transform="translate(45.146 24.118)">
        <path id="Path_7" data-name="Path 7" d="M3.921,0H0V2.83L3.921,3.4V0Z" transform="translate(3.802 4.324)" fill="#fff"/>
        <path id="Path_8" data-name="Path 8" d="M2.852,0H0V2.325l2.852.414V0Z" transform="translate(0 4.324)" fill="#fff"/>
        <path id="Path_9" data-name="Path 9" d="M3.919,0,0,.559v2.87H3.919V0Z" transform="translate(3.804 0)" fill="#fff"/>
        <path id="Path_10" data-name="Path 10" d="M2.852,0,0,.408V2.78H2.852V0Z" transform="translate(0 0.65)" fill="#fff"/>
      </g>
    </g>
    <g id="Coffee" transform="translate(745.913 583.626)">
      <path id="Path_1465" data-name="Path 1465" d="M668.824,628.1a5.167,5.167,0,1,0,5.167,5.167h0A5.167,5.167,0,0,0,668.824,628.1Zm0,8.347a3.18,3.18,0,1,1,3.18-3.18h0A3.18,3.18,0,0,1,668.824,636.447Z" transform="translate(-648.95 -621.812)" fill="#e4e4e4"/>
      <path id="Path_1467" data-name="Path 1467" d="M630.954,619.261h19.874v19.67a2.589,2.589,0,0,1-2.589,2.589h-14.7a2.589,2.589,0,0,1-2.589-2.589v-19.67Z" transform="translate(-630.954 -616.948)" fill="#e4e4e4"/>
      <g id="Path_12" data-name="Path 12" transform="translate(0.328 0)" fill="#271818">
        <path d="M 9.712939262390137 3.625421762466431 C 7.516009330749512 3.625421762466431 5.294699192047119 3.392971754074097 3.458209276199341 2.970891714096069 C 2.231906652450562 2.689045906066895 1.472022294998169 2.388893604278564 1.044337511062622 2.167599201202393 C 1.476906061172485 1.978030562400818 2.237149000167847 1.729674816131592 3.466479301452637 1.504781723022461 C 5.245819091796875 1.179271697998047 7.464179039001465 1.000001668930054 9.712939262390137 1.000001668930054 C 11.94903945922852 1.000001668930054 14.13343906402588 1.178001761436462 15.86375904083252 1.501201748847961 C 17.07052612304688 1.726611256599426 17.80727958679199 1.976586580276489 18.21882629394531 2.164786577224731 C 17.8129825592041 2.384935855865479 17.07732200622559 2.688147783279419 15.87413883209229 2.971941709518433 C 14.08753967285156 3.393341779708862 11.89944934844971 3.625421762466431 9.712939262390137 3.625421762466431 Z" stroke="none"/>
        <path d="M 9.712939262390137 2.000001668930054 C 8.112502098083496 2.000001668930054 6.512375831604004 2.094308853149414 5.095174789428711 2.269248485565186 C 6.538395881652832 2.500601768493652 8.140275955200195 2.625421762466431 9.712939262390137 2.625421762466431 C 11.47609519958496 2.625421762466431 13.01667594909668 2.47567892074585 14.27528858184814 2.266984462738037 C 12.88721466064453 2.09160327911377 11.33169174194336 2.000001668930054 9.712939262390137 2.000001668930054 M 9.712939262390137 1.9073486328125e-06 C 15.17697906494141 1.9073486328125e-06 19.55517959594727 1.015651702880859 19.55517959594727 2.133301734924316 C 19.55517959594727 3.250941753387451 15.17697906494141 4.625421524047852 9.712939262390137 4.625421524047852 C 4.248908996582031 4.625421524047852 -0.3281211853027344 3.25374174118042 -0.3281211853027344 2.136101722717285 C -0.3281211853027344 1.018451690673828 4.248908996582031 1.9073486328125e-06 9.712939262390137 1.9073486328125e-06 Z" stroke="none" fill="#e4e4e4"/>
      </g>
    </g>
  </g>
</svg>
