<svg xmlns="http://www.w3.org/2000/svg" xmlns:xlink="http://www.w3.org/1999/xlink" width="1920.517" height="665.224" viewBox="0 0 1920.517 665.224">
  <defs>
    <linearGradient id="linear-gradient" x1="0.5" x2="0.5" y2="1" gradientUnits="objectBoundingBox">
      <stop offset="0" stop-color="#0c0534"/>
      <stop offset="1" stop-opacity="0"/>
    </linearGradient>
  </defs>
  <g id="coding_person" data-name="coding person" transform="translate(0 -413.864)">
    <rect id="Floor" width="1920" height="2" transform="translate(0 836)" fill="#47435e"/>
    <path id="Shadow" d="M-2703.289,383.088l-4.27-5.654c-121.721,1.922-335.667,5.281-344.072,5.281C-3063.4,382.715-3237,143.53-3237,143.53l234.711-3.53,218.767,136.847-98.606-130.567,43.311-4.28,218.212,140.992v100.1Z" transform="translate(4541.123 696)" fill="url(#linear-gradient)"/>
    <g id="Person">
      <g id="Body" transform="translate(1214.999 323.975)">
        <g id="Legs">
          <path id="Path_1" data-name="Path 1" d="M89.41,494.381,85.3,514.694,161.7,540.208l6.064-29.98Z" fill="#eeabab"/>
          <path id="Path_4" data-name="Path 4" d="M299.243,523.378l-2.73,20.543-80.538-.755,4.03-30.32Z" fill="#eeabab"/>
        </g>
        <g id="Hands">
          <path id="Path_1421" data-name="Path 1421" d="M167.233,498.445a33.064,33.064,0,0,0-.112,8.154l2.684,38.546c.252,3.633.5,7.257.841,10.881.644,7.033,1.606,14.01,2.8,20.977a3.736,3.736,0,0,0,3.829,3.633c11.815,2.5,24.022,2.4,36.08,1.719,18.4-1.027,65.474-2.97,68.35-6.706s1.2-9.779-2.55-12.8-65.871-10.386-65.871-10.386c.607-4.81,2.438-9.34,4.175-13.907,3.12-8.1,6.034-16.466,6.09-25.143s-3.213-17.8-10.321-22.771c-5.847-4.081-13.375-4.838-20.5-4.67-5.184.149-14.141-1.093-18.876.934C170.1,488.556,167.933,494.776,167.233,498.445Z" transform="translate(-113.27 -156.487)" fill="#eeabab"/>
          <path id="Path_1421-2" data-name="Path 1421" d="M400.921,486.906c-4.735-2.027-13.692-.785-18.876-.934-7.125-.168-14.653.589-20.5,4.67-7.108,4.971-10.377,14.094-10.321,22.771s2.97,17.043,6.09,25.143c1.737,4.567,3.568,9.1,4.175,13.907,0,0-62.121,7.365-65.871,10.386s-5.426,9.064-2.55,12.8,92.615,7.487,104.43,4.987A3.736,3.736,0,0,0,401.327,577c1.194-6.967,2.156-13.944,2.8-20.977.341-3.624.589-7.248.841-10.881l2.684-38.546a33.063,33.063,0,0,0-.112-8.154C406.84,494.776,404.668,488.556,400.921,486.906Z" transform="translate(-113.27 -156.487)" fill="#eeabab"/>
        </g>
        <g id="Head">
          <circle id="Ellipse_276" data-name="Ellipse 276" cx="51.871" cy="51.871" r="51.871" transform="translate(124.108 110.842)" fill="#eeabab"/>
          <path id="Hair" d="M337.7,274.45A59.907,59.907,0,0,0,303.616,248.4l-6.368,4.647v-6.034a55.142,55.142,0,0,0-10.3-.6l-5.494,4.971v-4.558a59.335,59.335,0,0,0-40.932,24.347c-11.931,17.2-13.945,41.129-2.21,58.467,3.221-9.9,7.131-19.189,10.353-29.088a29.3,29.3,0,0,0,7.633.037l3.919-9.145,1.1,8.758c12.148-1.058,30.166-3.382,41.682-5.511l-1.12-6.719,6.7,5.583c3.528-.812,5.623-1.549,5.45-2.112,8.565,13.808,19.047,22.627,27.611,36.435C344.888,308.406,348.632,292.217,337.7,274.45Z" transform="translate(-113.27 -156.487)" fill="#282828"/>
        </g>
      </g>
      <g id="Pants" transform="translate(1214.999 323.975)">
        <g id="Shoes">
          <path id="Path_2" data-name="Path 2" d="M210.36,647.029l-8.091,40v0a26.011,26.011,0,0,1-30.65,20.336l-.828-.168,13.248-65.5Z" transform="translate(-113.27 -156.487)" fill="#1c1b26"/>
          <path id="Path_5" data-name="Path 5" d="M433.122,677.272l-8.8,66.24-.838-.111a26.011,26.011,0,0,1-22.356-29.208v0l5.377-40.457Z" transform="translate(-113.27 -156.487)" fill="#1c1b26"/>
        </g>
        <g id="Legs-2" data-name="Legs">
          <path id="Path_1423" data-name="Path 1423" d="M401.141,585.578c3.11-1.186,6.538-.757,9.872-.308,10.732,1.466,21.622,2.97,31.569,7.257,4.67,2,9.116,4.67,12.273,8.6,2.8,3.54,4.436,7.874,5.987,12.142l3.587,9.826a47.3,47.3,0,0,1,3.129,11.516c1.121,11.759-6.921,22.845-17.036,28.954S428.5,671.849,416.9,674.128s-23.247,4.8-34.8,7.472a140.084,140.084,0,0,1-16.373,3.222c-12.366,1.4-25.292-.663-37.042,3.428-4.67,1.635-9.256,4.063-14.1,5.193a87.744,87.744,0,0,1-9.751,1.485l-22.238,2.54a121.313,121.313,0,0,1-13.636,1.046c-9.713,0-19.268-2.3-28.7-4.6a7.257,7.257,0,0,1-2.8-1.13c-1.494-1.177-1.821-3.26-2.036-5.146q-1.429-12.525-2.5-25.077c-.224-2.718-.392-5.66,1.093-7.948,1.868-2.8,5.511-3.68,8.836-4.222a230.577,230.577,0,0,1,42.665-2.961c5.426-5.426-4.026-41.765,3.082-44.717a63.905,63.905,0,0,0,7.575-4.119c12.714-7.418,14.03,1.6,28.7.368a38.715,38.715,0,0,0,8.509-1.214c5.5-1.709,9.259-.614,14.909.526.7-1.933,1.186-4.521,2.8-5.847.8-.682,30.271,11.015,31.009,10.286,1.56-1.578,1.7-4.063,1.466-6.267s3.315.437,3.885-1.712a9.142,9.142,0,0,1,1.037-2.307C391.278,587.595,395.509,585.111,401.141,585.578Z" transform="translate(-113.27 -156.487)" fill="#2b2a39"/>
          <path id="Path_1427" data-name="Path 1427" d="M223.039,595.974c0,.934-1.466,0-1.6-1-1.027-7.556-7.024-13.786-14.01-16.812s-14.944-3.185-22.509-2.466c-11.441,1.083-24.284,5.464-28.468,16.158-.99,2.5-10.264,24.76-9.359,29.766,2.438,13.356,11.572,24.779,22.64,32.69s24,12.637,36.9,16.9A639.958,639.958,0,0,0,311.24,696.194c5.753.869,11.563,1.672,17.073,3.521,4.931,1.653,9.545,4.128,14.365,6.071,11.208,4.5,23.266,6.108,35.211,7.687,2.036.262,4.371.448,5.875-.934,1.943-1.8,1.3-4.941.747-7.528a40.488,40.488,0,0,1,4.773-28.729c2-3.362,4.6-6.809,4.222-10.7-.448-4.539-4.969-7.752-9.471-8.481s-9.078.346-13.6.934a7.285,7.285,0,0,1-4.623-.458A9.235,9.235,0,0,1,364,655.971a20.482,20.482,0,0,0-23.854-3.334c-1.672.934-4.2-1.149-5.94-1.933l-19.642-8.892C292,631.6,308.68,590.266,284.807,583.8a14.515,14.515,0,0,1-5.324-2.214c-1.186-.934-2.036-2.2-3.129-3.241-2.382-2.251-45.058,27.934-47.913,26.337S222.385,599.177,223.039,595.974Z" transform="translate(-113.27 -156.487)" fill="#2b2a39"/>
        </g>
      </g>
      <g id="Shirt" transform="translate(1214.999 323.975)">
        <g id="Arms">
          <path id="Path_1430" data-name="Path 1430" d="M182.88,429.9a9.668,9.668,0,0,0-2.073,3.316,156.78,156.78,0,0,0-13.169,53.816,5.38,5.38,0,0,1-.607,2.606,11.409,11.409,0,0,1-1.373,1.485,5.156,5.156,0,0,0,.617,7.266q.127.107.261.206c1.541-2.9,5.23-3.848,8.509-4.1,15.7-1.242,31.036,6.062,46.783,5.511-1.111-3.839-2.709-7.528-3.615-11.413-4.007-17.251,5.987-36.033-.14-52.649-1.224-3.325-3.269-6.594-6.491-8.051a17.289,17.289,0,0,0-4.156-1.1c-3.979-.719-11.9-3.792-15.747-2.559-1.42.458-1.98,1.793-3.157,2.6C186.734,427.977,184.362,428.4,182.88,429.9Z" transform="translate(-113.269 -156.487)" fill="#494949"/>
          <path id="Path_1430-2" data-name="Path 1430" d="M386.251,426.835c-1.177-.807-1.737-2.142-3.157-2.6-3.847-1.233-11.768,1.84-15.747,2.559a17.29,17.29,0,0,0-4.156,1.1c-3.222,1.457-5.267,4.726-6.491,8.051-6.127,16.616,3.867,35.4-.14,52.649-.906,3.885-2.5,7.574-3.615,11.413,15.747.551,31.083-6.753,46.783-5.511,3.279.252,6.968,1.2,8.509,4.1q.134-.1.261-.206a5.156,5.156,0,0,0,.617-7.266,11.4,11.4,0,0,1-1.373-1.485,5.38,5.38,0,0,1-.607-2.606,156.78,156.78,0,0,0-13.169-53.816,9.667,9.667,0,0,0-2.073-3.316C390.411,428.4,388.039,427.977,386.251,426.835Z" transform="translate(-113.269 -156.487)" fill="#494949"/>
        </g>
        <path id="Body-2" data-name="Body" d="M397,438.463c-1.784-10.731-1.029-6.9-6.016-16.571-3.278-6.332-4.931-6.63-13.315-11.991-1.442-.88-3.306-2.226-5-3.2-2.055-.99-29.673-16.756-34.063-19.5-3.769-2.357-9.719-6.722-12.719-6.722-3.018-.066-14.591,2.627-59.76-.9a163.141,163.141,0,0,0-22.01,10.822c-.146-.1-46.882,25-48.638,24.935-3.325-.14-6.416,1.989-8.322,4.67s-2.8,6-3.736,9.209c10.208,22.733,19.548,45.495,29.757,68.228a5.822,5.822,0,0,1,.738,2.8,6.834,6.834,0,0,1-1.27,2.8c-5.006,8.042-4.847,18.157-4.3,27.609s1.224,19.436-3,27.908c-1.149,2.326-2.643,4.455-3.736,6.781-2.559,5.268-3.484,22.117-1.989,27.777l187.267,5.365c-3.262-8.965-11.893-102.425-7.508-136.578C380.373,454.154,397,438.463,397,438.463Z" transform="translate(-113.269 -156.487)" fill="#505050"/>
      </g>
    </g>
    <g id="Laptop" transform="translate(-5.419 26.412) scale(1 0.974)">
      <path id="Path_6" data-name="Path 6" d="M391.3,600.024H198.966a8.48,8.48,0,0,1-8.47-8.47V474.868a8.48,8.48,0,0,1,8.47-8.47H391.3a8.48,8.48,0,0,1,8.47,8.47V591.555a8.48,8.48,0,0,1-8.47,8.469Z" transform="translate(1101.73 167.488)" fill="#3f3d56"/>
      <g id="Icon_ionic-logo-windows" data-name="Icon ionic-logo-windows" transform="translate(1390.366 685.266)">
        <path id="Path_7" data-name="Path 7" d="M25.032,18.633h-8.72v6.294l8.72,1.266v-7.56Z" transform="translate(-5.607 -6.767)" fill="#fff"/>
        <path id="Path_8" data-name="Path 8" d="M8.593,18.633H2.25V23.8l6.343.92V18.633Z" transform="translate(0 -6.767)" fill="#fff"/>
        <path id="Path_9" data-name="Path 9" d="M25.028,2.25,16.313,3.494V9.876h8.716V2.25Z" transform="translate(-5.603)" fill="#fff"/>
        <path id="Path_10" data-name="Path 10" d="M8.593,4.9,2.25,5.807v5.274H8.593V4.9Z" transform="translate(0 -1.205)" fill="#fff"/>
      </g>
    </g>
    <g id="Coffee" transform="translate(1140.987 333.73)">
      <path id="Path_1465" data-name="Path 1465" d="M675.147,628.1a11.49,11.49,0,1,0,11.49,11.49h0A11.49,11.49,0,0,0,675.147,628.1Zm0,18.561a7.071,7.071,0,1,1,7.071-7.071h0A7.071,7.071,0,0,1,675.147,646.661Z" transform="translate(-113.269 -156.487)" fill="#e4e4e4"/>
      <path id="Path_1467" data-name="Path 1467" d="M630.954,619.261h44.193V663a5.757,5.757,0,0,1-5.757,5.757H636.711A5.757,5.757,0,0,1,630.954,663V619.261Z" transform="translate(-113.269 -156.487)" fill="#e4e4e4"/>
      <g id="Path_12" data-name="Path 12" transform="translate(518.013 457.631)" fill="#271818">
        <path d="M 22 9.285460472106934 C 16.5588207244873 9.285460472106934 11.16206073760986 8.670140266418457 6.803850650787354 7.552840709686279 C 1.984042763710022 6.31719970703125 0.7591207027435303 5.055613040924072 0.6744728684425354 4.754298686981201 C 0.703941285610199 4.68693208694458 0.9267604947090149 4.283559322357178 2.185140609741211 3.719980716705322 C 3.302190780639648 3.219690799713135 4.917080879211426 2.743730783462524 6.855210781097412 2.343540668487549 C 11.05123043060303 1.477140665054321 16.42975997924805 1.000000715255737 22 1.000000715255737 C 27.59292984008789 1.000000715255737 32.9263916015625 1.482460737228394 37.01787948608398 2.358500719070435 C 41.69594192504883 3.360129594802856 42.83217620849609 4.490257263183594 42.88570022583008 4.7459716796875 C 42.87018203735352 4.852740287780762 42.59370040893555 5.28532886505127 41.54169082641602 5.867360591888428 C 40.47550964355469 6.457250595092773 38.92784881591797 7.031370639801025 37.06603240966797 7.527650833129883 C 32.81351089477539 8.661190986633301 27.46296119689941 9.285460472106934 22 9.285460472106934 Z" stroke="none"/>
        <path d="M 22 2.000000953674316 C 16.93193054199219 2.000000953674316 11.94328117370605 2.4075608253479 7.953029632568359 3.147600650787354 C 4.861042022705078 3.721045970916748 3.110767364501953 4.35977840423584 2.231739044189453 4.804064273834229 C 3.096836090087891 5.315140247344971 4.845050811767578 6.080576419830322 7.925788879394531 6.797570705413818 C 12.04839134216309 7.757050514221191 17.04670143127441 8.285460472106934 22 8.285460472106934 C 26.9326114654541 8.285460472106934 31.85845184326172 7.75730037689209 35.87014007568359 6.798270702362061 C 38.88983535766602 6.076388835906982 40.57569885253906 5.303465366363525 41.38861083984375 4.797497272491455 C 40.55982208251953 4.358311653137207 38.86970138549805 3.715428352355957 35.83786010742188 3.14077091217041 C 31.95672035217285 2.405130863189697 27.0423412322998 2.000000953674316 22 2.000000953674316 M 22 9.5367431640625e-07 C 34.15026092529297 9.5367431640625e-07 43.88598251342773 2.258490562438965 43.88598251342773 4.743770599365234 C 43.88598251342773 7.229050636291504 34.15026092529297 10.28546047210693 22 10.28546047210693 C 9.8497314453125 10.28546047210693 -0.3281288146972656 7.235280990600586 -0.3281288146972656 4.750000476837158 C -0.3281288146972656 2.264720916748047 9.8497314453125 9.5367431640625e-07 22 9.5367431640625e-07 Z" stroke="none" fill="#e4e4e4"/>
      </g>
    </g>
  </g>
</svg>
