<svg xmlns="http://www.w3.org/2000/svg" width="43.75" height="50" viewBox="0 0 43.75 50">
  <g id="discord-contact" transform="translate(-3232 -1418)">
    <path id="discord_contact" d="M29.025,23.75a2.559,2.559,0,1,1-2.55-2.775A2.664,2.664,0,0,1,29.025,23.75ZM17.35,20.975a2.785,2.785,0,0,0,0,5.55A2.664,2.664,0,0,0,19.9,23.75,2.647,2.647,0,0,0,17.35,20.975ZM43.75,5.15V50c-6.3-5.566-4.284-3.723-11.6-10.525L33.475,44.1H5.125A5.137,5.137,0,0,1,0,38.95V5.15A5.137,5.137,0,0,1,5.125,0h33.5A5.137,5.137,0,0,1,43.75,5.15Zm-7.125,23.7a33.479,33.479,0,0,0-3.6-14.575A12.363,12.363,0,0,0,26,11.65l-.35.4a16.638,16.638,0,0,1,6.225,3.175A21.242,21.242,0,0,0,13.2,14.5c-.925.425-1.475.725-1.475.725A16.866,16.866,0,0,1,18.3,11.95l-.25-.3a12.363,12.363,0,0,0-7.025,2.625,33.479,33.479,0,0,0-3.6,14.575s2.1,3.625,7.625,3.8c0,0,.925-1.125,1.675-2.075a7.775,7.775,0,0,1-4.375-2.95c.368.257.974.591,1.025.625a18.223,18.223,0,0,0,15.6.875A14.306,14.306,0,0,0,31.85,27.65a7.889,7.889,0,0,1-4.525,2.975c.75.95,1.65,2.025,1.65,2.025,5.525-.175,7.65-3.8,7.65-3.8Z" transform="translate(3232 1418)" fill="#fff"/>
  </g>
</svg>
