<svg xmlns="http://www.w3.org/2000/svg" xmlns:xlink="http://www.w3.org/1999/xlink" width="291" height="291" viewBox="0 0 291 291">
  <defs>
    <filter id="Exclusion_1" x="0" y="0" width="291" height="291" filterUnits="userSpaceOnUse">
      <feOffset dy="10" input="SourceAlpha"/>
      <feGaussianBlur stdDeviation="5" result="blur"/>
      <feFlood flood-opacity="0.478"/>
      <feComposite operator="in" in2="blur"/>
      <feComposite in="SourceGraphic"/>
    </filter>
  </defs>
  <g id="express" transform="translate(-1495 -2825)">
    <rect id="Rectangle_29" data-name="Rectangle 29" width="158" height="112" transform="translate(1554 2912)" fill="#fff"/>
    <g transform="matrix(1, 0, 0, 1, 1495, 2825)" filter="url(#Exclusion_1)">
      <path id="Exclusion_1-2" data-name="Exclusion 1" d="M-2648.5-513a131.464,131.464,0,0,1-26.3-2.651,129.85,129.85,0,0,1-24.5-7.6,130.511,130.511,0,0,1-22.167-12.032,131.445,131.445,0,0,1-19.314-15.935,131.389,131.389,0,0,1-15.935-19.314,130.489,130.489,0,0,1-12.032-22.167,129.851,129.851,0,0,1-7.6-24.5A131.467,131.467,0,0,1-2779-643.5a131.467,131.467,0,0,1,2.651-26.3,129.854,129.854,0,0,1,7.6-24.5,130.486,130.486,0,0,1,12.032-22.167,131.417,131.417,0,0,1,15.935-19.314,131.421,131.421,0,0,1,19.314-15.935,130.509,130.509,0,0,1,22.167-12.032,129.846,129.846,0,0,1,24.5-7.6A131.462,131.462,0,0,1-2648.5-774a131.466,131.466,0,0,1,26.3,2.651,129.846,129.846,0,0,1,24.5,7.6,130.5,130.5,0,0,1,22.167,12.032,131.429,131.429,0,0,1,19.314,15.935,131.417,131.417,0,0,1,15.935,19.314,130.526,130.526,0,0,1,12.032,22.167,129.848,129.848,0,0,1,7.6,24.5A131.467,131.467,0,0,1-2518-643.5a131.467,131.467,0,0,1-2.651,26.3,129.844,129.844,0,0,1-7.6,24.5,130.514,130.514,0,0,1-12.032,22.167,131.389,131.389,0,0,1-15.935,19.314,131.423,131.423,0,0,1-19.314,15.935,130.505,130.505,0,0,1-22.167,12.032,129.852,129.852,0,0,1-24.5,7.6A131.468,131.468,0,0,1-2648.5-513Zm-38.11-158.195a38.553,38.553,0,0,0-19.1,4.658,32.368,32.368,0,0,0-12.893,13.3,42.447,42.447,0,0,0-4.59,20.115,41.847,41.847,0,0,0,4.725,20.182,33.6,33.6,0,0,0,13.028,13.433,37.566,37.566,0,0,0,18.833,4.725c8.779,0,16.228-2.248,22.14-6.682a31.943,31.943,0,0,0,11.88-17.348h-13.23a19.739,19.739,0,0,1-7.492,9.922,19.722,19.722,0,0,1-5.991,2.784,27.244,27.244,0,0,1-7.307.928,25.753,25.753,0,0,1-8.994-1.536,23.444,23.444,0,0,1-7.543-4.607,21.352,21.352,0,0,1-5.282-7.341,28.587,28.587,0,0,1-2.21-9.737h59.13a72.633,72.633,0,0,0,.4-7.425,37.419,37.419,0,0,0-4.388-18.158A31.923,31.923,0,0,0-2667.98-666.6,37.3,37.3,0,0,0-2686.61-671.195Zm72.765,47.655h0L-2596.295-596h13.905l-23.9-37.4,23.76-36.585h-12.825l-16.74,27.4-17.55-27.4h-13.905l23.9,37.26-23.9,36.72h12.825l16.874-27.539Zm-49.95-14.85h-46.71a28.867,28.867,0,0,1,2.346-9.383,21.544,21.544,0,0,1,5.147-7.088,22.5,22.5,0,0,1,7.239-4.455,24.513,24.513,0,0,1,8.623-1.485,26.436,26.436,0,0,1,11.813,2.633,20.283,20.283,0,0,1,8.438,7.695,22.763,22.763,0,0,1,3.1,12.081Z" transform="translate(2794 779)" fill="#111"/>
    </g>
  </g>
</svg>
