<svg xmlns="http://www.w3.org/2000/svg" width="50" height="48.762" viewBox="0 0 50 48.762">
  <g id="github-contact" transform="translate(-2995 -1413.119)">
    <path id="Icon_simple-github" data-name="Icon simple-github" d="M25,.619a25,25,0,0,0-7.906,48.719c1.25.235,1.708-.537,1.708-1.2,0-.594-.021-2.167-.031-4.25-6.954,1.508-8.421-3.354-8.421-3.354-1.138-2.885-2.781-3.656-2.781-3.656-2.265-1.55.175-1.519.175-1.519a5.242,5.242,0,0,1,3.829,2.575c2.229,3.823,5.852,2.719,7.281,2.079a5.33,5.33,0,0,1,1.583-3.344C14.885,36.042,9.05,33.892,9.05,24.313A9.645,9.645,0,0,1,11.623,17.6a8.889,8.889,0,0,1,.219-6.617s2.094-.671,6.875,2.563a23.57,23.57,0,0,1,12.5,0c4.75-3.233,6.844-2.562,6.844-2.562a9.135,9.135,0,0,1,.25,6.617,9.684,9.684,0,0,1,2.563,6.708c0,9.6-5.844,11.719-11.406,12.333a5.985,5.985,0,0,1,1.688,4.625c0,3.346-.031,6.033-.031,6.846,0,.656.438,1.438,1.719,1.188A24.969,24.969,0,0,0,25,.619" transform="translate(2995 1412.5)" fill="#fff"/>
  </g>
</svg>
