<svg xmlns="http://www.w3.org/2000/svg" xmlns:xlink="http://www.w3.org/1999/xlink" width="296.25" height="296.25" viewBox="0 0 296.25 296.25">
  <defs>
    <filter id="Icon_simple-javascript" x="0" y="0" width="296.25" height="296.25" filterUnits="userSpaceOnUse">
      <feOffset dy="10" input="SourceAlpha"/>
      <feGaussianBlur stdDeviation="5" result="blur"/>
      <feFlood flood-opacity="0.478"/>
      <feComposite operator="in" in2="blur"/>
      <feComposite in="SourceGraphic"/>
    </filter>
  </defs>
  <g id="javascript" transform="translate(-1043.375 -2412.5)">
    <rect id="Rectangle_21" data-name="Rectangle 21" width="223" height="195" transform="translate(1096 2481)" fill="#323330"/>
    <g transform="matrix(1, 0, 0, 1, 1043.38, 2412.5)" filter="url(#Icon_simple-javascript)">
      <path id="Icon_simple-javascript-2" data-name="Icon simple-javascript" d="M0,0H266.25V266.25H0ZM244.44,202.749c-1.941-12.148-9.851-22.354-33.315-31.872-8.165-3.827-17.24-6.49-19.935-12.647-1.01-3.661-1.165-5.658-.51-7.821,1.664-7.167,10.151-9.319,16.807-7.322,4.327,1.331,8.32,4.659,10.827,9.984,11.471-7.5,11.471-7.5,19.47-12.48-3-4.659-4.482-6.667-6.5-8.653-6.989-7.821-16.3-11.815-31.44-11.471l-7.821.987c-7.5,1.83-14.644,5.824-18.97,11.149-12.647,14.322-9,39.283,6.312,49.6,15.143,11.316,37.286,13.8,40.115,24.462,2.662,12.98-9.652,17.14-21.81,15.642-9-2-13.978-6.5-19.47-14.821l-20.3,11.66c2.33,5.325,4.992,7.644,8.986,12.3,19.3,19.481,67.561,18.482,76.225-11.138.322-1,2.662-7.821.821-18.3Zm-99.655-80.374H119.846c0,21.5-.1,42.866-.1,64.4,0,13.667.7,26.215-1.531,30.075-3.661,7.644-13.091,6.667-17.373,5.325-4.393-2.174-6.623-5.17-9.208-9.485a9.517,9.517,0,0,0-1.409-2.174L69.979,223c3.384,6.989,8.32,13,14.688,16.829,9.485,5.658,22.232,7.488,35.578,4.493,8.686-2.507,16.175-7.666,20.091-15.653,5.658-10.317,4.46-22.964,4.4-37.12.133-22.787,0-45.584,0-68.548l.044-.621Z" transform="translate(15 5)" fill="#f7e018"/>
    </g>
  </g>
</svg>
