<svg xmlns="http://www.w3.org/2000/svg" xmlns:xlink="http://www.w3.org/1999/xlink" width="277.763" height="330.025" viewBox="0 0 277.763 330.025">
  <defs>
    <filter id="Icon_awesome-linux" x="0" y="0" width="277.763" height="330.025" filterUnits="userSpaceOnUse">
      <feOffset dy="10" input="SourceAlpha"/>
      <feGaussianBlur stdDeviation="5" result="blur"/>
      <feFlood flood-opacity="0.478"/>
      <feComposite operator="in" in2="blur"/>
      <feComposite in="SourceGraphic"/>
    </filter>
  </defs>
  <g id="linux" transform="translate(-1501.618 -2821.488)">
    <path id="Path_109" data-name="Path 109" d="M4911.6,3234.252c29.44,34.082,33.189,34.952,39.283,48.657s18.421,34.17,21.665,51.031,9.317,17.351,2.263,18.86-15.152,0-23.928,2.527-1.5-12.561-12.548-10.562,24.933,59.56,1.773,66.878-76.949,12.863-94.3,5.055-65.9-71.933-50.319-94.565,3.017-20.1,19.614-37.456,22.67-52.318,26.933-47.528c1.756,1.974,13.873,1.829,27.767.961C4889.018,3236.91,4911.6,3234.252,4911.6,3234.252Z" transform="translate(-3237 -317)" fill="#fff"/>
    <path id="Path_105" data-name="Path 105" d="M4794.613,3346.8c10.826-.754,18.068-.98,24.631,15.088s24.933,43.453,29.2,50.017-.528,17.615-7.808,24.405-27.385-.755-32.93-2.527-21.84-8.3-36.966-8.3-17.351-13.805-16.106-15.314,5.319-11.844,4.036-18.634-1.719-15.759,0-18.059,9.153-6.4,13.96-7.9,9.271-9.064,12.705-12.258A60.889,60.889,0,0,1,4794.613,3346.8Z" transform="translate(-3237 -317)" fill="#e8e35e"/>
    <path id="Path_106" data-name="Path 106" d="M4806.52,3346.781c-10.192-.7-17.01-.913-23.189,14.048-5,12.1-19.952,29.644-26.745,39.941-1.4,2.127.026,5.459-.74,6.626-4.013,6.111.5,16.4,7.351,22.722s22.467,3.537,27.688,1.886,24.185-8.164,38.425-8.164c6.323,0,10.536-2.129,12.934-6.169,2.653-4.459,2.569-11.109,1.918-11.89-1.171-1.4-5.007-11.028-3.8-17.349s1.618-14.672,0-16.813-8.617-5.962-13.143-7.353-8.729-8.439-11.961-11.413A57.345,57.345,0,0,0,4806.52,3346.781Z" transform="matrix(0.927, -0.375, 0.375, 0.927, -4009.096, 1726.884)" fill="#e8e35e"/>
    <path id="Path_107" data-name="Path 107" d="M4870.664,3208.161c6.562-.312-5.357-15.959,6.7-24.574s29.618,1.049,30.511,15.78-5.8,21.159-6.852,20.4-17.187-9.375-22.543-10.267S4870.664,3208.161,4870.664,3208.161Z" transform="translate(-3237 -317)" fill="#fff"/>
    <path id="Path_108" data-name="Path 108" d="M4899.477,3202.837c-6.562-.312,13.833-10.635,1.78-19.25s-29.618,1.049-30.511,15.78,5.8,21.159,6.852,20.4,14.225-10.714,19.582-11.606S4899.477,3202.837,4899.477,3202.837Z" transform="translate(-3267.452 -317)" fill="#fff"/>
    <path id="Path_110" data-name="Path 110" d="M1637.7,2890.778c3.466,1.271,23.039,12.5,32.31,14.319s-8.345,16.826-8.241,17.049-9.151,2.386-10.645,4-6.782,4.824-9.289,5.735a31.215,31.215,0,0,1-8.464,2.284c-3.554.343-8.362-.67-13.049-5.254s-9.614-6.971-10.988-8.584-5.254-5.167-5.031-8.138,2.627-7.795,6.748-9.392,13.289-10.388,15.916-11.314S1637.7,2890.778,1637.7,2890.778Z" fill="#e8e35e"/>
    <g transform="matrix(1, 0, 0, 1, 1501.62, 2821.49)" filter="url(#Icon_awesome-linux)">
      <path id="Icon_awesome-linux-2" data-name="Icon awesome-linux" d="M129.375,72.246c.586.293,1.055,1,1.758,1,.645,0,1.641-.234,1.7-.879.117-.82-1.113-1.348-1.875-1.7a3.873,3.873,0,0,0-3.223-.059c-.234.117-.469.41-.352.645C127.559,72.012,128.73,71.895,129.375,72.246Zm-12.832,1c.7,0,1.172-.7,1.758-1,.645-.352,1.816-.234,2.051-.937.117-.234-.117-.527-.352-.645a3.873,3.873,0,0,0-3.223.059c-.762.352-1.992.879-1.875,1.7C114.961,73.008,115.957,73.3,116.543,73.242ZM246.094,236.6c-2.109-2.344-3.105-6.8-4.219-11.543-1.055-4.746-2.285-9.844-6.152-13.125a15.839,15.839,0,0,0-2.344-1.7,13,13,0,0,0-2.4-1.172c5.391-16,3.281-31.934-2.168-46.348-6.68-17.637-18.34-33.047-27.246-43.594-10.02-12.6-19.746-24.551-19.57-42.187C182.285,50.039,184.98.059,137.578,0c-60-.117-45,60.586-45.645,79.219-1,13.711-3.75,24.492-13.184,37.91-11.074,13.184-26.66,34.453-34.043,56.66-3.516,10.488-5.156,21.152-3.633,31.23-3.809,3.4-6.68,8.613-9.727,11.836-2.461,2.52-6.035,3.457-9.961,4.863s-8.2,3.516-10.84,8.5a15.007,15.007,0,0,0-1.641,7.266,46.1,46.1,0,0,0,.7,6.914c.7,4.746,1.465,9.2.469,12.188-3.047,8.438-3.457,14.3-1.289,18.574,2.227,4.277,6.68,6.152,11.777,7.207,10.137,2.109,23.906,1.582,34.746,7.324,11.6,6.094,23.379,8.262,32.754,6.094,6.8-1.523,12.363-5.625,15.176-11.836,7.324-.059,15.41-3.164,28.3-3.867,8.73-.7,19.688,3.105,32.285,2.4a18.612,18.612,0,0,0,1.465,3.926v.059a23.5,23.5,0,0,0,23.613,13.477c9.727-.762,19.98-6.445,28.3-16.348,7.969-9.609,21.094-13.594,29.824-18.867,4.336-2.637,7.852-5.918,8.145-10.723C255.41,249.2,252.6,243.867,246.094,236.6ZM131.074,51.152c5.742-13.008,20.039-12.773,25.781-.234,3.809,8.32,2.109,18.105-2.52,23.672a72.461,72.461,0,0,0-7.383-2.871,10.48,10.48,0,0,0,2.285-2.7c2.813-6.914-.117-15.82-5.332-16-4.277-.293-8.145,6.328-6.914,13.477a41.74,41.74,0,0,0-7.617-2.578A23.341,23.341,0,0,1,131.074,51.152Zm-23.848-6.738c5.918,0,12.188,8.32,11.191,19.629a21.078,21.078,0,0,0-5.977,2.7c.7-5.215-1.934-11.777-5.625-11.484-4.922.41-5.742,12.422-1.055,16.465.586.469,1.113-.117-3.457,3.223C93.164,66.387,96.152,44.414,107.227,44.414ZM99.258,79.98c3.633-2.7,7.969-5.859,8.262-6.152,2.754-2.578,7.91-8.32,16.348-8.32,4.16,0,9.141,1.348,15.176,5.215,3.691,2.4,6.621,2.578,13.242,5.449,4.922,2.051,8.027,5.684,6.152,10.664-1.523,4.16-6.445,8.438-13.3,10.605-6.5,2.109-11.6,9.375-22.383,8.73a16.32,16.32,0,0,1-5.625-1.23c-4.687-2.051-7.148-6.094-11.719-8.789-5.039-2.812-7.734-6.094-8.613-8.965A6.31,6.31,0,0,1,99.258,79.98Zm1.934,195.7C99.609,296.25,75.469,295.84,57.07,286.23c-17.52-9.258-40.2-3.809-44.824-12.832-1.406-2.754-1.406-7.441,1.523-15.469v-.117c1.406-4.453.352-9.375-.352-14-.7-4.57-1.055-8.789.527-11.719,2.051-3.926,4.98-5.332,8.672-6.621,6.035-2.168,6.914-1.992,11.484-5.8,3.223-3.34,5.566-7.559,8.379-10.547,2.988-3.223,5.859-4.746,10.371-4.043,4.746.7,8.848,3.984,12.832,9.375l11.484,20.859C82.734,246.973,102.422,263.672,101.191,275.684Zm-.82-15.176a125.765,125.765,0,0,0-8.437-11.484c4.16,0,8.32-1.289,9.785-5.215,1.348-3.633,0-8.73-4.336-14.59-7.91-10.664-22.441-19.043-22.441-19.043-7.91-4.922-12.363-10.957-14.414-17.52S58.77,179,60.352,172.031c3.047-13.418,10.9-26.484,15.938-34.687,1.348-1,.469,1.875-5.1,12.188-4.98,9.434-14.3,31.23-1.523,48.281a101.192,101.192,0,0,1,8.086-36.035c7.031-16.055,21.855-43.887,23.027-66.035.645.469,2.7,1.875,3.633,2.4,2.7,1.582,4.746,3.926,7.383,6.035,7.266,5.859,16.7,5.391,24.844.7,3.633-2.051,6.563-4.395,9.316-5.273,5.8-1.816,10.43-5.039,13.066-8.789,4.512,17.813,15.059,43.535,21.8,56.074,3.574,6.68,10.723,20.8,13.828,37.852a23.3,23.3,0,0,1,6.387.82c8.086-20.918-6.855-43.477-13.652-49.746-2.754-2.7-2.871-3.867-1.523-3.809,7.383,6.563,17.109,19.746,20.625,34.57a44.269,44.269,0,0,1,.234,20.918c9.609,3.984,21.035,10.488,17.988,20.391-1.289-.059-1.875,0-2.461,0,1.875-5.918-2.285-10.312-13.359-15.293-11.484-5.039-21.094-5.039-22.441,7.324-7.09,2.461-10.723,8.613-12.539,16-1.641,6.563-2.109,14.473-2.578,23.379-.293,4.512-2.109,10.547-3.984,16.992C148.535,269.707,122.4,275.566,100.371,260.508Zm150.82-6.738c-.527,9.844-24.141,11.66-37.031,27.246-7.734,9.2-17.227,14.3-25.547,14.941s-15.527-2.812-19.746-11.309c-2.754-6.5-1.406-13.535.645-21.27,2.168-8.32,5.391-16.875,5.8-23.789.469-8.906,1-16.7,2.461-22.676,1.523-6.035,3.867-10.078,8.027-12.363.176-.117.41-.176.586-.293.469,7.734,4.277,15.586,11.016,17.285,7.383,1.934,17.988-4.395,22.5-9.551,5.273-.176,9.2-.527,13.242,2.988,5.8,4.98,4.16,17.754,10.02,24.375C249.375,246.152,251.367,250.781,251.191,253.77ZM101.543,87.129c1.172,1.113,2.754,2.637,4.688,4.16,3.867,3.047,9.258,6.211,16,6.211,6.8,0,13.184-3.457,18.633-6.328a52.1,52.1,0,0,0,8.672-6.094c2.285-1.992,3.457-3.691,1.816-3.867s-1.523,1.523-3.516,2.988c-2.578,1.875-5.684,4.336-8.145,5.742-4.336,2.461-11.426,5.977-17.52,5.977s-10.957-2.812-14.59-5.684c-1.816-1.465-3.34-2.93-4.512-4.043-.879-.82-1.113-2.7-2.52-2.871C99.727,83.262,99.492,85.488,101.543,87.129Z" transform="translate(7.57 5)" fill="#0f0f0f"/>
    </g>
  </g>
</svg>
