<svg xmlns="http://www.w3.org/2000/svg" xmlns:xlink="http://www.w3.org/1999/xlink" width="329.987" height="329.982" viewBox="0 0 329.987 329.982">
  <defs>
    <filter id="Icon_simple-next-dot-js" x="0" y="0" width="329.987" height="329.982" filterUnits="userSpaceOnUse">
      <feOffset dy="10" input="SourceAlpha"/>
      <feGaussianBlur stdDeviation="5" result="blur"/>
      <feFlood flood-opacity="0.478"/>
      <feComposite operator="in" in2="blur"/>
      <feComposite in="SourceGraphic"/>
    </filter>
  </defs>
  <g id="next" transform="translate(-576.506 -2821.509)">
    <g id="Ellipse_12" data-name="Ellipse 12" transform="translate(598 2839)" fill="#fff" stroke="#707070" stroke-width="1">
      <circle cx="143.5" cy="143.5" r="143.5" stroke="none"/>
      <circle cx="143.5" cy="143.5" r="143" fill="none"/>
    </g>
    <g transform="matrix(1, 0, 0, 1, 576.51, 2821.51)" filter="url(#Icon_simple-next-dot-js)">
      <path id="Icon_simple-next-dot-js-2" data-name="Icon simple-next-dot-js" d="M222.663,281.275c-1.113.587-1.05.825.063.263a2.85,2.85,0,0,0,.875-.588c0-.2-.025-.175-.938.325Zm2.225-1.175c-.525.413-.525.438.113.112a1.8,1.8,0,0,0,.65-.437C225.65,279.538,225.5,279.6,224.888,280.1Zm1.462-.888c-.525.413-.525.438.113.112a1.8,1.8,0,0,0,.65-.437C227.113,278.65,226.963,278.712,226.35,279.212Zm1.462-.875c-.525.413-.525.438.113.112a1.8,1.8,0,0,0,.65-.437C228.575,277.775,228.425,277.837,227.813,278.337Zm2.025-1.312c-1.025.65-1.35,1.087-.437.587.65-.375,1.7-1.175,1.525-1.2a5.824,5.824,0,0,0-1.087.612ZM140.175.075c-.65.062-2.7.262-4.55.413C93.025,4.325,53.113,27.313,27.838,62.65A148.45,148.45,0,0,0,1.363,128.187c-1.2,8.238-1.35,10.675-1.35,21.85s.15,13.6,1.35,21.85c8.15,56.325,48.237,103.65,102.6,121.188a158.484,158.484,0,0,0,31.662,6.563,275.469,275.469,0,0,0,28.738,0c20.137-2.225,37.213-7.212,54.037-15.8,2.575-1.325,3.075-1.675,2.725-1.962Q208.8,265.587,196.7,249.125l-23.988-32.4-30.05-44.475Q127.675,149.927,112.4,127.8c-.112-.025-.237,19.737-.287,43.862-.088,42.25-.113,43.95-.65,44.95a5.3,5.3,0,0,1-2.575,2.663c-.937.475-1.762.563-6.187.563H97.625l-1.35-.85a5.525,5.525,0,0,1-1.962-2.137l-.613-1.325.063-58.787.088-58.812.912-1.137A7.963,7.963,0,0,1,96.938,95c1.2-.588,1.675-.65,6.75-.65,5.988,0,6.975.238,8.537,1.938q18.247,27.155,36.188,54.513c19.475,29.525,46.087,69.837,59.175,89.637l23.75,35.975,1.2-.788a154.251,154.251,0,0,0,30.813-27.038,149.25,149.25,0,0,0,35.3-76.675c1.2-8.237,1.35-10.675,1.35-21.85s-.15-13.6-1.35-21.85C290.5,71.888,250.412,24.563,196.05,7.025A156.9,156.9,0,0,0,164.825.487C162.012.2,142.625-.125,140.2.113Zm61.4,90.725a5.887,5.887,0,0,1,2.963,3.463c.237.762.287,17.062.237,53.8l-.087,52.725-9.3-14.25-9.325-14.25V133.963c0-24.775.113-38.7.288-39.375a6.05,6.05,0,0,1,2.9-3.7c1.2-.613,1.637-.675,6.25-.675,4.337,0,5.1.063,6.075.588Z" transform="translate(14.99 4.97)" fill="#111"/>
    </g>
  </g>
</svg>
