<svg xmlns="http://www.w3.org/2000/svg" xmlns:xlink="http://www.w3.org/1999/xlink" width="308.965" height="338.892" viewBox="0 0 308.965 338.892">
  <defs>
    <filter id="Icon_awesome-node-js" x="0" y="0" width="308.965" height="338.892" filterUnits="userSpaceOnUse">
      <feOffset dy="10" input="SourceAlpha"/>
      <feGaussianBlur stdDeviation="12.5" result="blur"/>
      <feFlood flood-opacity="0.478"/>
      <feComposite operator="in" in2="blur"/>
      <feComposite in="SourceGraphic"/>
    </filter>
  </defs>
  <g id="node" transform="translate(-1486.018 -2392.358)">
    <g transform="matrix(1, 0, 0, 1, 1486.02, 2392.36)" filter="url(#Icon_awesome-node-js)">
      <path id="Icon_awesome-node-js-2" data-name="Icon awesome-node-js" d="M117.34,266.265a20.511,20.511,0,0,1-10.159-2.723L74.873,244.429c-4.818-2.723-2.461-3.666-.89-4.189a63.644,63.644,0,0,0,14.61-6.65A2.363,2.363,0,0,1,91,233.8l24.821,14.714a3.031,3.031,0,0,0,2.985,0l96.717-55.821a3.1,3.1,0,0,0,1.466-2.618V78.433a3.12,3.12,0,0,0-1.519-2.671L118.807,19.994a3.032,3.032,0,0,0-2.985,0L19.209,75.814a3.056,3.056,0,0,0-1.519,2.671V190.074a2.89,2.89,0,0,0,1.519,2.566l26.5,15.29c14.4,7.174,23.2-1.257,23.2-9.792V87.963a2.772,2.772,0,0,1,2.828-2.775H83.984a2.8,2.8,0,0,1,2.828,2.775V198.191c0,19.165-10.473,30.162-28.643,30.162-5.6,0-10,0-22.255-6.074l-25.344-14.61A20.362,20.362,0,0,1,.41,190.022V78.433A20.426,20.426,0,0,1,10.569,60.786L107.182,4.965a21.2,21.2,0,0,1,20.317,0l96.718,55.873a20.362,20.362,0,0,1,10.159,17.647V190.074a20.49,20.49,0,0,1-10.159,17.647L127.5,263.542A20.366,20.366,0,0,1,117.34,266.265Zm78.076-110.018c0-20.893-14.138-26.444-43.829-30.371-30.057-3.98-33.094-6.022-33.094-13.039,0-5.812,2.566-13.562,24.821-13.562,19.846,0,27.177,4.294,30.214,17.7a2.8,2.8,0,0,0,2.723,2.2h12.568a2.734,2.734,0,0,0,2.042-.89,2.915,2.915,0,0,0,.733-2.147c-1.937-23.093-17.28-33.828-48.28-33.828-27.6,0-44.039,11.625-44.039,31.157,0,21.155,16.39,27.02,42.834,29.638,31.681,3.09,34.142,7.75,34.142,13.981,0,10.787-8.693,15.4-29.062,15.4-25.606,0-31.209-6.441-33.094-19.165a2.772,2.772,0,0,0-2.775-2.356H98.8a2.76,2.76,0,0,0-2.775,2.775c0,16.285,8.85,35.713,51.213,35.713C177.822,189.393,195.416,177.3,195.416,156.247Z" transform="translate(37.09 25.13)" fill="#7dc624"/>
    </g>
  </g>
</svg>
