<svg xmlns="http://www.w3.org/2000/svg" xmlns:xlink="http://www.w3.org/1999/xlink" width="486.278" height="597.34" viewBox="0 0 486.278 597.34">
  <defs>
    <linearGradient id="linear-gradient" x1="-0.03" y1="0.503" x2="0.97" y2="0.503" gradientUnits="objectBoundingBox">
      <stop offset="0" stop-color="gray" stop-opacity="0.251"/>
      <stop offset="0.54" stop-color="gray" stop-opacity="0.122"/>
      <stop offset="1" stop-color="gray" stop-opacity="0.102"/>
    </linearGradient>
  </defs>
  <g id="Person_coding_on_a_chair" data-name="Person coding on a chair" transform="translate(-349.392 -140.8)">
    <g id="Table">
      <rect id="Rectangle_6" data-name="Rectangle 6" width="283.43" height="65.63" transform="translate(360 359.24)" fill="#565661"/>
      <rect id="Rectangle_7" data-name="Rectangle 7" width="283.43" height="65.63" transform="translate(360 359.24)" opacity="0.1"/>
      <path id="Path_16" data-name="Path 16" d="M393.91,427.03l1.99,175.21-27.26,68.82-2.11-244.03Z" fill="#bcbec9"/>
      <path id="Path_17" data-name="Path 17" d="M362.99,371.84l275.95,1.66v48.88H362.99Z" fill="#565661"/>
      <path id="Path_18" data-name="Path 18" d="M615.33,427.03l23.61,3.33V668.4l-23.61-72.81Z" fill="#bcbec9"/>
      <rect id="Rectangle_8" data-name="Rectangle 8" width="132.99" height="282.6" transform="translate(647.91 361.87)" fill="#efeff0"/>
      <rect id="Rectangle_9" data-name="Rectangle 9" width="111.71" height="217.23" transform="translate(658.55 369.72)" fill="#565661"/>
      <rect id="Rectangle_10" data-name="Rectangle 10" width="111.71" height="217.23" transform="translate(658.55 369.72)" opacity="0.1"/>
      <rect id="Rectangle_11" data-name="Rectangle 11" width="111.71" height="48.21" transform="translate(658.55 374.17)" fill="#565661"/>
      <rect id="Rectangle_12" data-name="Rectangle 12" width="111.71" height="102.4" transform="translate(658.55 427.03)" fill="#565661"/>
      <rect id="Rectangle_13" data-name="Rectangle 13" width="111.71" height="102.4" transform="translate(658.55 535.75)" fill="#565661"/>
      <rect id="Rectangle_14" data-name="Rectangle 14" width="111.71" height="102.4" transform="translate(658.55 535.75)" opacity="0.1"/>
      <ellipse id="Ellipse_2" data-name="Ellipse 2" cx="7.2" cy="9.2" rx="7.2" ry="9.2" transform="translate(656.01 644.47)" fill="#565661"/>
      <ellipse id="Ellipse_3" data-name="Ellipse 3" cx="7.2" cy="9.2" rx="7.2" ry="9.2" transform="translate(755.86 644.91)" fill="#565661"/>
      <path id="Path_19" data-name="Path 19" d="M359,671.06h9.64l-2.65-306.74H351.35Z" fill="#efeff0"/>
      <path id="Path_20" data-name="Path 20" d="M638.94,361.87V668.4h8.97V364.32Z" fill="#efeff0"/>
      <path id="Path_21" data-name="Path 21" d="M366.46,419.38v10.98H638.94v-7.98Z" fill="#efeff0"/>
      <path id="Path_22" data-name="Path 22" d="M384.93,341.26H730.37l50.2,16.62v9.64L349.69,364.2v-9.81Z" fill="#fff"/>
      <path id="Path_23" data-name="Path 23" d="M349.69,354.39l430.88,3.49v9.64L349.69,364.2Z" fill="#bcbec9"/>
      <path id="Path_24" data-name="Path 24" d="M423.68,549.64l-2-.3v-.25c-.06-.47-.13-.93-.2-1.4.82.65,1.6,1.3,2.32,1.95Z" transform="translate(-34.96 -80.93)" fill="url(#linear-gradient)"/>
      <path id="Path_55" data-name="Path 55" d="M384.38,454.83c2.47,1.86,5.15-5.23,3.62-7C387.59,448.29,384,454.57,384.38,454.83Z" transform="translate(-34.96 -80.93)" opacity="0.1"/>
    </g>
    <g id="Person_on_a_chair" data-name="Person on a chair">
      <path id="Path_61" data-name="Path 61" d="M694.53,676.47h8.53l5.59-114.64.38-6.52-7.25-2.55-.48,6.93Z" fill="#565661"/>
      <path id="Path_62" data-name="Path 62" d="M701.3,559.69l7.35,2.14.38-6.52-7.25-2.55Z" opacity="0.1"/>
      <path id="Path_63" data-name="Path 63" d="M658.27,713.13a19.226,19.226,0,0,1-1.2,4.58,8.09,8.09,0,0,1-3.65,4.56,9.641,9.641,0,0,1-3.69.73c-4.71.28-9.69.21-13.74-2.19a25,25,0,0,1-4.71-3.93,214.9,214.9,0,0,1-24.72-29.4c-1.23-1.77-2.5-3.86-1.95-6a93.21,93.21,0,0,0,26.77-12.25,12.92,12.92,0,0,1,3.76-2,20.431,20.431,0,0,1,7.06-.26c2.27.37,2.37.44,3.24,3,1.44,4.33,1.2,9,2.82,13.33a41.3,41.3,0,0,0,3.74,6.84C656.18,697.13,659.39,705.38,658.27,713.13Z" transform="translate(-34.96 -80.93)" fill="#a26565"/>
      <path id="Path_64" data-name="Path 64" d="M658.27,713.13a19.226,19.226,0,0,1-1.2,4.58,8.09,8.09,0,0,1-3.65,4.56,9.641,9.641,0,0,1-3.69.73c-4.71.28-9.69.21-13.74-2.19a25,25,0,0,1-4.71-3.93,214.9,214.9,0,0,1-24.72-29.4c-1.23-1.77-2.5-3.86-1.95-6a92.813,92.813,0,0,0,9.16-3.06l.15.11c3.07,2.19,5.3,5.33,7.47,8.41l7,9.85a29,29,0,0,0,4.39,5.3,29.379,29.379,0,0,0,6.79,4.08c3.29,1.59,6.58,3.18,10,4.46C651.78,711.52,655.52,711.87,658.27,713.13Z" transform="translate(-34.96 -80.93)" opacity="0.1"/>
      <path id="Path_65" data-name="Path 65" d="M664.73,606.34a30.1,30.1,0,0,1-2.5,4.77A204.161,204.161,0,0,0,640.91,661c-1.38-.31-2.16,1.57-2.15,3s0,3.23-1.32,3.75c-.39.15-.83.15-1.21.32-.84.38-1.08,1.45-1.2,2.37l-1.18,8.66c-.41,3-.77,6.25.7,8.9a14.229,14.229,0,0,0,3.87,4l19.52,15.4c.8.63,1.79,1.3,2.75.95,2.19-.8.25-4.72,2-6.31,1.16-1.09,3-.27,4.61-.4,2.1-.16,3.69-2.09,4.22-4.12a19.589,19.589,0,0,0,.11-6.26,5.679,5.679,0,0,1,.32-2.81,6.821,6.821,0,0,1,2.39-2.29,25.66,25.66,0,0,0,10.51-21.64,12,12,0,0,1,.14-3.83,10.09,10.09,0,0,1,1.81-3.16c7.09-9.59,13-20,18.87-30.39,3.38-6,6.82-12.09,8-18.85a1.75,1.75,0,0,0-1.44-2.4,68.009,68.009,0,0,0-8.94-2.14c-9.19-1.86-18.06-4.73-27-7.49S667.42,599.12,664.73,606.34Z" transform="translate(-34.96 -80.93)" fill="#454b69"/>
      <path id="Path_66" data-name="Path 66" d="M587.5,700.72l14.08,1.7,64.81-147.11,17.48-1.28,30.71,8.96,5.96,175.15h14.07l-5.54-181.55,33.69.86,60.12,149.66h12.79L772.44,532.2l-2.43-6.74-94.24-3.23L652.28,535.4l-.3.76Z" fill="#565661"/>
      <path id="Path_67" data-name="Path 67" d="M686.94,617.09c20.25,6.1,41.27,12.76,41.27,12.76s19.17,6.69,27.29,0a12.269,12.269,0,0,1,3.39-1.87,16.7,16.7,0,0,1-3.39,1.87l51.9-16.73-2.4-6.73-94.24-3.23-23.49,13.17Z" transform="translate(-34.96 -80.93)" opacity="0.1"/>
      <path id="Path_68" data-name="Path 68" d="M782.79,588.06l-38.37-8.53s-91.68,17.06-98.5,23.88c0,0,73.34,14.92,81.44,20S783.65,634.11,782.79,588.06Z" transform="translate(-34.96 -80.93)" fill="#fff"/>
      <path id="Path_69" data-name="Path 69" d="M640.41,725.14c-2.31,4.4-8,5.64-13,5.71a54.891,54.891,0,0,1-20.32-3.63c-3.7-1.42-7.25-3.25-11.07-4.29-5.69-1.56-12-1.43-17-4.56a20,20,0,0,1-6.39-6.93c-.29-.49-.57-1-.83-1.52-2.39-4.65-3.5-10.06-2.17-15.08s6.16-10.55,11.76-10.47c6.65.1,14.58,3.25,21,4.88,8,2,16,4.31,23.07,8.54,5.92,3.56,11.15,8.67,13.94,14.91a25.274,25.274,0,0,1,1.32,3.72C641.59,719.3,641.79,722.51,640.41,725.14Z" transform="translate(-34.96 -80.93)" fill="#a26565"/>
      <path id="Path_70" data-name="Path 70" d="M640.41,725.14c-2.31,4.4-8,5.64-13,5.71a54.891,54.891,0,0,1-20.32-3.63c-3.7-1.42-7.25-3.25-11.07-4.29-5.69-1.56-12-1.43-17-4.56a20,20,0,0,1-6.39-6.93c-.29-.49-.57-1-.83-1.52,1,.08,1.92.18,2.42.23,6.14.59,12,2.83,17.86,4.52a100.32,100.32,0,0,0,25,3.9c6,.17,12.26-.27,17.5-3.2a45.9,45.9,0,0,1,4.86-2.67,25.264,25.264,0,0,1,1.32,3.72C641.59,719.3,641.79,722.51,640.41,725.14Z" transform="translate(-34.96 -80.93)" opacity="0.1"/>
      <path id="Path_71" data-name="Path 71" d="M683.38,535c-13-2.13-26.24-2.65-39.42-3.17l-16.12-.64a7.31,7.31,0,0,0-3.39.41,22.086,22.086,0,0,0-2.65,2c-1.62,1.1-3.69,1.22-5.64,1.33A280.771,280.771,0,0,0,575,540.27c-7,1.43-14.27,3.3-19.53,8.13-5.56,5.11-8,12.9-8.19,20.44s1.79,14.95,3.88,22.19a101.091,101.091,0,0,1,4.37,26.86,50.254,50.254,0,0,0,.29,7.57,36.217,36.217,0,0,0,2.11,7l7.36,19.65c.65,1.72,1.29,3.43,2,5.11s1.39,3,2,4.58c.9,2.16,1.61,4.4,2.32,6.63l4.9,15.39.64,2c1.77,5.54,3.58,11.18,6.92,15.94s8.51,8.6,14.32,8.89a43.863,43.863,0,0,1,5.62.15,22.721,22.721,0,0,1,4.61,1.67,35.17,35.17,0,0,0,13.77,2.69c4.35,0,9.18-1.21,11.54-4.87,1.3-2,1.64-4.46,2-6.82.63-4.74,1.24-9.69-.37-14.19-1-2.69-2.68-5-3.84-7.65-1.62-3.61-2.15-7.6-3.2-11.41a43.58,43.58,0,0,0-13.3-21.16,208.567,208.567,0,0,1-5-27.38,24.1,24.1,0,0,0-1.21-6c-1.17-3-3.54-5.43-4.53-8.49-.93-2.84-.65-6.12-2.34-8.57,14.07,3.87,28,3,42.61,2.77a116.406,116.406,0,0,0,14-.8,44,44,0,0,1,6.56-.7c4.52,0,8.76,2,12.91,3.76,11.73,5,24.09,8.93,36.83,9.47,13.15.55,26.15-2.54,39-5.6,5.65-1.35,11.52-2.81,16-6.52s7-10.4,4.24-15.49c-2.1-3.83-6.45-5.71-10.51-7.31-11.24-4.44-22.54-8.77-33.37-14.14C713.87,556,701.5,538,683.38,535Z" transform="translate(-34.96 -80.93)" fill="#454b69"/>
      <path id="Path_72" data-name="Path 72" d="M660.2,489.76c-1.57,3.4-4.21,6.18-6.16,9.38a23.77,23.77,0,0,0-3,17.65,20.08,20.08,0,0,0,11.25,13.69,28.231,28.231,0,0,0,7.8,1.88c3.52.43,7.27.52,10.38-1.18A15.16,15.16,0,0,0,686,525.4c2.69-4.5,4.22-9.57,5.62-14.62,2.59-9.32,4.8-18.88,4.48-28.55-.11-3.33-.77-7.08-3.53-9a11.87,11.87,0,0,0-4.64-1.52l-13.19-2.36c-2.55-.46-7-2.33-9.21-.49s-2.38,7.28-2.76,9.83C662.17,482.46,661.8,486.29,660.2,489.76Z" transform="translate(-34.96 -80.93)" fill="#a1616a"/>
      <path id="Path_73" data-name="Path 73" d="M820.53,451.08,817.08,480a133,133,0,0,0-1.23,15.56c0,2.9.09,6.12-1.83,8.29a7.559,7.559,0,0,1-3.44,2.07c-4.19,1.3-8.76.14-12.76-1.65-2.34-1-4.73-2.45-5.79-4.78a11.878,11.878,0,0,1-.75-5.07c0-17.25,1.63-35.24,10.64-49.94a10.89,10.89,0,0,1,3.17-3.66c2.5-1.6,5.77-1.15,8.6-.28,1.74.53,6.44,1.12,7.55,2.67S820.77,449.09,820.53,451.08Z" transform="translate(-34.96 -80.93)" fill="#a1616a"/>
      <circle id="Ellipse_4" data-name="Ellipse 4" cx="36" cy="36" r="36" transform="translate(658.04 193.57)" fill="#a1616a"/>
      <path id="Path_74" data-name="Path 74" d="M719.37,364.15a18.569,18.569,0,0,1-2.23,8q27.57-4.2,55-9.36a25.83,25.83,0,0,1-12.76-15,42.359,42.359,0,0,1-1.62-10.69,123.585,123.585,0,0,1,.33-17.21c-6.4.67-12.46,3.07-18.56,5.13a182.99,182.99,0,0,1-18.69,5.23c-3.05.68-6.12,1.26-9.2,1.8-3.6.64-5.33.63-2.83,3.79C715.52,344.28,720.31,352.86,719.37,364.15Z" transform="translate(-34.96 -80.93)" fill="#a1616a"/>
      <path id="Path_75" data-name="Path 75" d="M730.43,359.34c-4.75.71-9.73,1.51-13.52,4.45a51.014,51.014,0,0,0-4.11,3.95c-7.53,7.31-18.16,10.25-27.3,15.41a12,12,0,0,0-3.88,3.05c-1,1.39-1.51,3.16-2.56,4.54-1.22,1.6-3.15,2.6-4.1,4.37s-.74,3.65-.84,5.53c-.23,4.13-1.79,8.05-3,12-5.55,18.91-2.51,40-10.91,57.86a8.13,8.13,0,0,0,4.42,4.62,25.1,25.1,0,0,0,6.56,1.41l18.61,2.31c2.66.33,5.48.64,7.91-.47a92.935,92.935,0,0,0-4.69,18.93,94.275,94.275,0,0,1-2.1,11.72c-2.56,8.8-9,16.13-16.63,21.14a6.149,6.149,0,0,0-2.35,2.17c-1,2,.48,4.24,1.53,6.2,3.05,5.68,2.63,12.5,2.59,18.94s.61,13.51,5.11,18.13c2.66,2.73,6.3,4.21,9.84,5.62l29.11,11.63a101.443,101.443,0,0,0,14.82,5c7.67,1.75,15.64,1.68,23.51,1.34q7.8-.33,15.58-1a12.121,12.121,0,0,0,5.89-1.55,11,11,0,0,0,3.45-4.68c4.05-8.81,5.41-19.09,11.69-26.47,4.31-5.07,11-9.12,11.49-15.75.23-3.3-1.24-6.51-1.26-9.82,0-4.07,2.13-7.94,2-12-.27-6.61-6.5-11.65-7.49-18.19-2.52-16.58,5.9-33.14,11.07-49.09.93-2.85,2.13-6,4.87-7.22s6.6-.58,7.58-3.28c2.47-6.78,3.06-14.73,2.74-21.94-.18-4.17-1.66-8.25-1.49-12.43.12-2.94,1.06-5.8,1.31-8.73.38-4.43-.79-8.83-2-13.11a20.536,20.536,0,0,0-1.56-4.42,21,21,0,0,0-2.6-3.57l-4.87-5.79c-2.28-2.71-4.69-5.52-8-6.89-1.07-2.65-4.49-4.48-6.94-5.94a71.115,71.115,0,0,0-7.64-3.75l-27.54-12.16a11.279,11.279,0,0,0-3.27-1.06,10.589,10.589,0,0,0-4.86,1C748.2,354.68,739.43,358,730.43,359.34Z" transform="translate(-34.96 -80.93)" fill="#131223"/>
      <path id="Path_76" data-name="Path 76" d="M701.26,316.76c-1.06-3.73-3.77-6.95-4.18-10.81-.37-3.43,1.14-6.75,2-10.09s.83-7.42-1.82-9.64c-.44-.38-1-.72-1.16-1.28-.32-1,.69-1.91,1-2.92.57-2-1.9-4.21-1-6.13.51-1.05,1.79-1.42,2.91-1.75,4.28-1.27,8.62-4.09,9.55-8.46,3.35,1.4,6.92-1.23,9.49-3.78s5.73-5.46,9.27-4.69l-.79,1.61a25.6,25.6,0,0,1,16.93-.19h-1.68a23.22,23.22,0,0,1,13.39,4.53c-.43,0-.47.64-.3,1,1.4,3.27,5,5,8.47,5.81,2.09.5,4.36.86,5.89,2.36s1.56,4.63-.46,5.35a52.6,52.6,0,0,1,11.61,6.3c1,.73,2.13,1.72,2,3a9.759,9.759,0,0,1-.62,1.87,6.471,6.471,0,0,0,.21,3.2l1.11,4.58c1.22,5.09,2.18,11.22-1.53,14.91a13.69,13.69,0,0,1-2.41,16.16,6.66,6.66,0,0,1-5,8.61c1.23,1.92.1,4.66-1.84,5.86s-4.38,1.21-6.64,1-4.55-.72-6.81-.38c-3.29.51-6.51,2.75-9.68,1.75a21.727,21.727,0,0,1-3.39-1.82c-2.22-1.19-4.8-1.46-7.26-2a33.54,33.54,0,0,1-11.73-5,13.75,13.75,0,0,1-5.39-6c-2.2-5.56,1.5-12.85-2.39-17.38-2.28-2.64-6.8-2.68-9.35-.42-1.27,1.13-1.44,3.51-2.76,4.36a17.451,17.451,0,0,1-5.64.48Z" transform="translate(-34.96 -80.93)" fill="#282828"/>
      <path id="Path_77" data-name="Path 77" d="M652.34,603.5a16.5,16.5,0,0,1-3.63-4,7.46,7.46,0,0,1-1.1-5.17,14.79,14.79,0,0,0,3.89,12.72c2.51,2.57,7.22,5.09,10.89,4.21C661.87,608.32,654.67,605.48,652.34,603.5Z" transform="translate(-34.96 -80.93)" opacity="0.1"/>
      <path id="Path_78" data-name="Path 78" d="M850.16,442.65s-21.32-12.36-49.46,3S767.87,551.4,767.87,551.4,779.38,643.49,735,623c0,0-81-25.15-89.11-19.61,0,0-7.68,0,7.67,3.41S728.21,629,728.21,629s19.17,6.7,27.29,0,31.13.86,34.12-45.2a800.983,800.983,0,0,1,10.66-86.56l7.91-23.45Z" transform="translate(-34.96 -80.93)" fill="#565661"/>
      <path id="Path_79" data-name="Path 79" d="M852.72,585.07s-9.38-93.38,6-127.07c13.38-29.36-38.36-15.63-51.86-11.63a9.83,9.83,0,0,0-5.18,3.7c-8,11.25-36.7,56.34-28.24,116.67,0,0,3.41,53.73-17.91,62.25l65.69-21.16c5.33-1.72,10.74-3.15,16.2-4.39C844.38,601.86,855.72,597.37,852.72,585.07Z" transform="translate(-34.96 -80.93)" fill="#fff"/>
    </g>
    <g id="Computer">
      <path id="Path_90" data-name="Path 90" d="M591.94,426.2v2.28H524.33v-1.85a22.72,22.72,0,0,0,5.22-2.78,22.21,22.21,0,0,0,9.28-18.06,21.92,21.92,0,0,0-.69-5.47,22.23,22.23,0,0,0-12.28-14.73h65.62a22.23,22.23,0,0,0-12.28,14.73,21.92,21.92,0,0,0-.68,5.47,22.2,22.2,0,0,0,9.27,18.06,22.872,22.872,0,0,0,4.15,2.35Z" transform="translate(-34.96 -80.93)" fill="#dfe6f5"/>
      <path id="Path_91" data-name="Path 91" d="M591.48,385.59a22.23,22.23,0,0,0-12.28,14.73H538.14a22.23,22.23,0,0,0-12.28-14.73Z" transform="translate(-34.96 -80.93)" opacity="0.1"/>
      <path id="Path_92" data-name="Path 92" d="M446.92,373.94v12.84c0,7.08,5.18,12.83,11.58,12.83H657.41c6.4,0,11.59-5.75,11.59-12.83V373.94Z" transform="translate(-34.96 -80.93)" fill="#dfe6f5"/>
      <path id="Path_93" data-name="Path 93" d="M591.94,426.2v2.28H524.33v-1.85a22.72,22.72,0,0,0,5.22-2.78h58.24a22.872,22.872,0,0,0,4.15,2.35Z" transform="translate(-34.96 -80.93)" opacity="0.1"/>
      <rect id="Rectangle_16" data-name="Rectangle 16" width="112.29" height="6.77" rx="3.385" transform="translate(467.03 343.63)" fill="#dfe6f5"/>
      <path id="Path_94" data-name="Path 94" d="M669,233.31a11.58,11.58,0,0,0-11.59-11.58H458.5a11.57,11.57,0,0,0-11.58,11.58V376.44H669Z" transform="translate(-34.96 -80.93)" fill="#474157"/>
      <path id="Path_95" data-name="Path 95" d="M662.94,238.48v123a5.7,5.7,0,0,1-5.7,5.71H458.68a5.7,5.7,0,0,1-5.7-5.71v-123a5.62,5.62,0,0,1,.76-2.85,5.7,5.7,0,0,1,4.94-2.85H657.24a5.7,5.7,0,0,1,5.7,5.7Z" transform="translate(-34.96 -80.93)" fill="#4c4c78"/>
      <path id="Path_96" data-name="Path 96" d="M662.94,238.48H453a5.7,5.7,0,0,1,5.7-5.7H657.24a5.7,5.7,0,0,1,5.7,5.7Z" transform="translate(-34.96 -80.93)" fill="#c8cad7"/>
      <circle id="Ellipse_8" data-name="Ellipse 8" cx="1.43" cy="1.43" r="1.43" transform="translate(422.29 153.27)" fill="#ededf4"/>
      <circle id="Ellipse_9" data-name="Ellipse 9" cx="1.43" cy="1.43" r="1.43" transform="translate(426.57 153.27)" fill="#ededf4"/>
      <circle id="Ellipse_10" data-name="Ellipse 10" cx="1.43" cy="1.43" r="1.43" transform="translate(430.85 153.27)" fill="#ededf4"/>
    </g>
  </g>
</svg>
