<svg xmlns="http://www.w3.org/2000/svg" xmlns:xlink="http://www.w3.org/1999/xlink" width="330" height="330" viewBox="0 0 330 330">
  <defs>
    <filter id="Icon_simple-sass" x="0" y="0" width="330" height="330" filterUnits="userSpaceOnUse">
      <feOffset dy="10" input="SourceAlpha"/>
      <feGaussianBlur stdDeviation="5" result="blur"/>
      <feFlood flood-opacity="0.478"/>
      <feComposite operator="in" in2="blur"/>
      <feComposite in="SourceGraphic"/>
    </filter>
  </defs>
  <g id="sass" transform="translate(-1017.5 -2821.5)">
    <path id="Path_100" data-name="Path 100" d="M4410.846,2712.18c44.623,1.721,95.621.828,102.442,19.57s35.316,31.427,6.821,62.472-67.954,58.265-86.7,48.894-36.145,6.375-42.52-11.475-17.4,10.582-4.653,16.128,105.31,13.2,99.828,31.874-.892,54.44-29.77,54.44-34.423-11.028-59.476,5.928-31.491,25.052-44.623,18.678-31.81-15.363-30.981-32.32-23.4-102.824-13.2-128.323S4410.846,2712.18,4410.846,2712.18Z" transform="translate(-3237 140)" fill="#fff"/>
    <g transform="matrix(1, 0, 0, 1, 1017.5, 2821.5)" filter="url(#Icon_simple-sass)">
      <path id="Icon_simple-sass-2" data-name="Icon simple-sass" d="M150,0A150,150,0,1,1,0,150,150.007,150.007,0,0,1,150,0ZM120.188,199.975a38.335,38.335,0,0,1-.3,22.4l-.812,2.25c-.3.762-.65,1.5-.975,2.2a42.051,42.051,0,0,1-6.937,10.125c-8.725,9.488-20.9,13.087-26.125,10.063-5.625-3.275-2.825-16.687,7.3-27.375,10.887-11.475,26.5-18.863,26.5-18.863v-.038l1.35-.762ZM244.075,64.213C237.3,37.55,193.112,28.788,151.3,43.65c-24.863,8.838-51.8,22.725-71.162,40.838C57.1,106,53.438,124.75,54.95,132.587c5.338,27.637,43.213,45.712,58.788,59.125v.075c-4.588,2.25-38.2,19.113-46.075,36.563-8.437,18.375,1.313,31.512,7.688,33.187,19.688,5.45,39.937-4.5,50.812-20.613,10.5-15.762,9.575-36.012,5.05-45.95a58.324,58.324,0,0,1,22.875-1.3c26.262,3,31.512,19.5,30.375,26.25s-6.538,10.675-8.425,11.8-2.437,1.5-2.262,2.262c.188,1.125,1.137,1.125,2.625.938,2.063-.375,13.7-5.625,14.262-18.387.563-16.125-14.825-34.113-42.187-33.75-11.25.2-18.387,1.137-23.437,3.2a4.528,4.528,0,0,0-1.312-1.312C106.85,166.487,75.538,153.737,76.85,129.55c.375-8.812,3.563-32.05,60-60.175,46.313-23.075,83.262-16.687,89.637-2.625,9.163,20.05-19.7,57.375-67.887,62.8-18.375,2.063-27.937-5.05-30.387-7.687-2.613-2.812-2.988-3-3.925-2.425-1.5.75-.562,3.188,0,4.688,1.5,3.75,7.313,10.313,17.45,13.688,8.8,2.813,30.375,4.488,56.25-5.625,29.05-11.238,51.738-42.563,45.175-68.813l.913.838Z" transform="translate(15 5)" fill="#cd669a"/>
    </g>
  </g>
</svg>
