<svg id="Skills" xmlns="http://www.w3.org/2000/svg" width="21.627" height="22.418" viewBox="0 0 21.627 22.418">
  <path id="Icon_metro-cog" data-name="Icon metro-cog" d="M23.162,15.288a4.277,4.277,0,0,1,1.58-5.834l-2.2-3.816a4.222,4.222,0,0,1-2.142.581,4.277,4.277,0,0,1-4.263-4.291H11.728a4.221,4.221,0,0,1-.568,2.151A4.277,4.277,0,0,1,5.318,5.628l-2.2,3.816a4.222,4.222,0,0,1,1.574,1.565,4.277,4.277,0,0,1-1.57,5.828l2.2,3.816a4.221,4.221,0,0,1,2.132-.575,4.276,4.276,0,0,1,4.262,4.268h4.406a4.222,4.222,0,0,1,.568-2.128,4.277,4.277,0,0,1,5.832-1.555l2.2-3.816a4.222,4.222,0,0,1-1.564-1.559Zm-9.234,2.388a4.539,4.539,0,1,1,4.539-4.539A4.539,4.539,0,0,1,13.928,17.676Z" transform="translate(-3.115 -1.928)" fill="rgb(190,190,190)"/>
</svg>
